<?xml version="1.0" encoding="UTF-8" standalone="no" ?>
<!DOCTYPE svg PUBLIC "-//W3C//DTD SVG 1.1//EN" "http://www.w3.org/Graphics/SVG/1.1/DTD/svg11.dtd">
<svg xmlns="http://www.w3.org/2000/svg" xmlns:xlink="http://www.w3.org/1999/xlink" version="1.1" width="760" height="506.34999999999997" viewBox="0 0 800 533" xml:space="preserve">
<desc>Created with Fabric.js 3.6.3</desc>
<defs>
</defs>
<g transform="matrix(1 0 0 1 400 266.5)"  >
	<image style="stroke: rgb(0,0,0); stroke-width: 0; stroke-dasharray: none; stroke-linecap: butt; stroke-dashoffset: 0; stroke-linejoin: miter; stroke-miterlimit: 4; fill: rgb(30,139,195); fill-rule: nonzero; opacity: 1;"  xlink:href="https://isoflat.com/isobuild/assets/images/samples/sample3.jpg" x="-400" y="-266.5" width="800" height="533"></image>
	<rect x="-400" y="-266.5" width="800" height="533" style="stroke: rgb(0,0,0); stroke-width: 0; stroke-dasharray: none; stroke-linecap: butt; stroke-dashoffset: 0; stroke-linejoin: miter; stroke-miterlimit: 4; fill: none; fill-rule: nonzero; opacity: 1;"/>
</g>
<g transform="matrix(0.8 0 0 0.8 183.36 336)"  >
<g style=""   >
		<g transform="matrix(1 0 0 1 -0.14 112.68)"  >
<ellipse style="stroke: rgb(0,0,0); stroke-width: 0.1; stroke-dasharray: none; stroke-linecap: butt; stroke-dashoffset: 0; stroke-linejoin: miter; stroke-miterlimit: 4; fill: rgb(245,245,245); fill-rule: nonzero; opacity: 1;"  cx="0" cy="0" rx="214.61" ry="118.82" />
</g>
		<g transform="matrix(1 0 0 1 -83.3 132.71)"  >
<path style="stroke: rgb(0,0,0); stroke-width: 0.1; stroke-dasharray: none; stroke-linecap: butt; stroke-dashoffset: 0; stroke-linejoin: miter; stroke-miterlimit: 4; fill: rgb(224,224,224); fill-rule: nonzero; opacity: 1;"  transform=" translate(-166.7, -382.71)" d="M 108.7 349.21 c -32 18.5 -32 48.49 0 67 s 84 18.5 116 0 s 32 -48.48 0 -67 S 140.73 330.72 108.7 349.21 Z" stroke-linecap="round" />
</g>
		<g transform="matrix(1 0 0 1 174.58 36.42)"  >
<path style="stroke: rgb(0,0,0); stroke-width: 0.1; stroke-dasharray: none; stroke-linecap: butt; stroke-dashoffset: 0; stroke-linejoin: miter; stroke-miterlimit: 4; fill: rgb(149,106,254); fill-rule: nonzero; opacity: 1;"  transform=" translate(-424.58, -286.42)" d="M 420 327.67 l -8.82 -5.1 s -5.25 -21.82 -3.16 -41.45 c 2.94 -27.61 21.12 -38 28 -35.62 s 8.91 10.42 -2.53 26.86 C 426.81 282.06 418.52 302.27 420 327.67 Z" stroke-linecap="round" />
</g>
		<g transform="matrix(1 0 0 1 174.58 36.42)"  >
<path style="stroke: rgb(0,0,0); stroke-width: 0.1; stroke-dasharray: none; stroke-linecap: butt; stroke-dashoffset: 0; stroke-linejoin: miter; stroke-miterlimit: 4; fill: rgb(30,139,195); fill-rule: nonzero; opacity: 0.15;"  transform=" translate(-424.58, -286.42)" d="M 420 327.67 l -8.82 -5.1 s -5.25 -21.82 -3.16 -41.45 c 2.94 -27.61 21.12 -38 28 -35.62 s 8.91 10.42 -2.53 26.86 C 426.81 282.06 418.52 302.27 420 327.67 Z" stroke-linecap="round" />
</g>
		<g transform="matrix(1 0 0 1 173.3 33.13)"  >
<path style="stroke: rgb(0,0,0); stroke-width: 0.1; stroke-dasharray: none; stroke-linecap: butt; stroke-dashoffset: 0; stroke-linejoin: miter; stroke-miterlimit: 4; fill: rgb(255,255,255); fill-rule: nonzero; opacity: 1;"  transform=" translate(-423.31, -283.12)" d="M 416.38 317 h 0.08 a 0.61 0.61 0 0 0 0.49 -0.71 c -4.84 -25.47 4.06 -54.08 15.07 -66 a 0.62 0.62 0 0 0 0 -0.87 a 0.63 0.63 0 0 0 -0.87 0 c -11.21 12.13 -20.28 41.21 -15.37 67 A 0.6 0.6 0 0 0 416.38 317 Z" stroke-linecap="round" />
</g>
		<g transform="matrix(1 0 0 1 186.05 54.28)"  >
<path style="stroke: rgb(0,0,0); stroke-width: 0.1; stroke-dasharray: none; stroke-linecap: butt; stroke-dashoffset: 0; stroke-linejoin: miter; stroke-miterlimit: 4; fill: rgb(149,106,254); fill-rule: nonzero; opacity: 1;"  transform=" translate(-436.06, -304.28)" d="M 443.15 341 c 1.39 0.71 5.1 -2.46 6.13 -3.23 a 12.92 12.92 0 0 0 4.05 -5.15 a 12.06 12.06 0 0 0 0.71 -7.34 a 28.7 28.7 0 0 0 -1.11 -3.82 l -1.27 -3.7 a 9.48 9.48 0 0 1 -0.74 -3.76 c 0.2 -2.59 2.39 -4.5 4.38 -6.16 c 2.21 -1.83 4.48 -4.21 4.31 -7.31 a 10.88 10.88 0 0 0 -3.05 -6.33 c -1.57 -1.8 -3.41 -3.37 -4.85 -5.28 a 7.62 7.62 0 0 1 -1.8 -4.72 a 8.07 8.07 0 0 1 0.9 -3.06 c 1 -2.07 2.34 -4 3 -6.19 s 0.4 -4.88 -1.36 -6.34 c -1.45 -1.21 -3.52 -1.28 -5.39 -1.06 a 12.16 12.16 0 0 0 -4.86 2 c -4.78 3 -7.28 8.93 -12.39 11.3 c -2 0.91 -4.16 1.2 -6.23 1.86 s -4.14 1.83 -5 3.82 c -1.72 3.92 2.07 8.45 0.93 12.57 c -1 3.65 -4.43 5.19 -6.22 8.53 a 7.64 7.64 0 0 0 -0.68 4.74 a 22.8 22.8 0 0 0 2.38 7.84 a 70.7 70.7 0 0 0 4.72 7.24 S 442.94 340.91 443.15 341 Z" stroke-linecap="round" />
</g>
		<g transform="matrix(1 0 0 1 187.41 53.25)"  >
<path style="stroke: rgb(0,0,0); stroke-width: 0.1; stroke-dasharray: none; stroke-linecap: butt; stroke-dashoffset: 0; stroke-linejoin: miter; stroke-miterlimit: 4; fill: rgb(255,255,255); fill-rule: nonzero; opacity: 1;"  transform=" translate(-437.42, -303.25)" d="M 429.64 334 h 0 a 0.61 0.61 0 0 0 0.56 -0.66 c -2.23 -24.22 7.85 -51.59 15.77 -59.8 a 0.6 0.6 0 0 0 0 -0.86 a 0.62 0.62 0 0 0 -0.87 0 C 437 281 426.74 308.87 429 333.43 A 0.61 0.61 0 0 0 429.64 334 Z" stroke-linecap="round" />
</g>
		<g transform="matrix(1 0 0 1 190.82 51.66)"  >
<path style="stroke: rgb(0,0,0); stroke-width: 0.1; stroke-dasharray: none; stroke-linecap: butt; stroke-dashoffset: 0; stroke-linejoin: miter; stroke-miterlimit: 4; fill: rgb(255,255,255); fill-rule: nonzero; opacity: 1;"  transform=" translate(-440.83, -301.65)" d="M 432.05 304.12 a 0.39 0.39 0 0 0 0.18 0 a 82.19 82.19 0 0 1 17.47 -3.72 a 0.62 0.62 0 0 0 0.55 -0.67 a 0.59 0.59 0 0 0 -0.66 -0.55 a 83.69 83.69 0 0 0 -17.78 3.8 a 0.61 0.61 0 0 0 -0.37 0.78 A 0.62 0.62 0 0 0 432.05 304.12 Z" stroke-linecap="round" />
</g>
		<g transform="matrix(1 0 0 1 -173.91 36.42)"  >
<path style="stroke: rgb(0,0,0); stroke-width: 0.1; stroke-dasharray: none; stroke-linecap: butt; stroke-dashoffset: 0; stroke-linejoin: miter; stroke-miterlimit: 4; fill: rgb(149,106,254); fill-rule: nonzero; opacity: 1;"  transform=" translate(-76.09, -286.42)" d="M 80.67 327.67 l 8.82 -5.1 s 5.25 -21.82 3.16 -41.45 c -2.94 -27.61 -21.12 -38 -28 -35.62 s -8.91 10.42 2.53 26.86 C 73.89 282.06 82.18 302.27 80.67 327.67 Z" stroke-linecap="round" />
</g>
		<g transform="matrix(1 0 0 1 -173.91 36.42)"  >
<path style="stroke: rgb(0,0,0); stroke-width: 0.1; stroke-dasharray: none; stroke-linecap: butt; stroke-dashoffset: 0; stroke-linejoin: miter; stroke-miterlimit: 4; fill: rgb(30,139,195); fill-rule: nonzero; opacity: 0.15;"  transform=" translate(-76.09, -286.42)" d="M 80.67 327.67 l 8.82 -5.1 s 5.25 -21.82 3.16 -41.45 c -2.94 -27.61 -21.12 -38 -28 -35.62 s -8.91 10.42 2.53 26.86 C 73.89 282.06 82.18 302.27 80.67 327.67 Z" stroke-linecap="round" />
</g>
		<g transform="matrix(1 0 0 1 -172.61 33.13)"  >
<path style="stroke: rgb(0,0,0); stroke-width: 0.1; stroke-dasharray: none; stroke-linecap: butt; stroke-dashoffset: 0; stroke-linejoin: miter; stroke-miterlimit: 4; fill: rgb(255,255,255); fill-rule: nonzero; opacity: 1;"  transform=" translate(-77.39, -283.12)" d="M 84.32 317 h -0.08 a 0.61 0.61 0 0 1 -0.49 -0.71 c 4.84 -25.47 -4.06 -54.08 -15.07 -66 a 0.62 0.62 0 0 1 0 -0.87 a 0.63 0.63 0 0 1 0.87 0 c 11.21 12.13 20.28 41.21 15.37 67 A 0.6 0.6 0 0 1 84.32 317 Z" stroke-linecap="round" />
</g>
		<g transform="matrix(1 0 0 1 -185.38 54.28)"  >
<path style="stroke: rgb(0,0,0); stroke-width: 0.1; stroke-dasharray: none; stroke-linecap: butt; stroke-dashoffset: 0; stroke-linejoin: miter; stroke-miterlimit: 4; fill: rgb(149,106,254); fill-rule: nonzero; opacity: 1;"  transform=" translate(-64.62, -304.28)" d="M 57.55 341 c -1.39 0.71 -5.1 -2.46 -6.13 -3.23 a 12.92 12.92 0 0 1 -4.05 -5.15 a 12.06 12.06 0 0 1 -0.71 -7.34 a 28.7 28.7 0 0 1 1.11 -3.82 l 1.27 -3.7 a 9.48 9.48 0 0 0 0.74 -3.76 c -0.2 -2.59 -2.39 -4.5 -4.38 -6.16 c -2.21 -1.83 -4.48 -4.21 -4.31 -7.31 a 10.88 10.88 0 0 1 3 -6.33 c 1.57 -1.8 3.41 -3.37 4.85 -5.28 a 7.62 7.62 0 0 0 1.8 -4.72 a 8.07 8.07 0 0 0 -0.9 -3.06 c -1 -2.07 -2.34 -4 -3 -6.19 s -0.4 -4.88 1.36 -6.34 c 1.45 -1.21 3.52 -1.28 5.39 -1.06 a 12.16 12.16 0 0 1 4.86 2 c 4.78 3 7.28 8.93 12.39 11.3 c 2 0.91 4.16 1.2 6.23 1.86 s 4.14 1.83 5 3.82 c 1.72 3.92 -2.07 8.45 -0.93 12.57 c 1 3.65 4.43 5.19 6.22 8.53 a 7.64 7.64 0 0 1 0.68 4.74 a 22.8 22.8 0 0 1 -2.38 7.84 A 70.7 70.7 0 0 1 81 327.46 S 57.76 340.91 57.55 341 Z" stroke-linecap="round" />
</g>
		<g transform="matrix(1 0 0 1 -186.71 53.25)"  >
<path style="stroke: rgb(0,0,0); stroke-width: 0.1; stroke-dasharray: none; stroke-linecap: butt; stroke-dashoffset: 0; stroke-linejoin: miter; stroke-miterlimit: 4; fill: rgb(255,255,255); fill-rule: nonzero; opacity: 1;"  transform=" translate(-63.29, -303.25)" d="M 71.06 334 h 0 a 0.61 0.61 0 0 1 -0.56 -0.66 c 2.23 -24.22 -7.85 -51.59 -15.77 -59.8 a 0.6 0.6 0 0 1 0 -0.86 a 0.62 0.62 0 0 1 0.87 0 C 63.67 281 74 308.87 71.7 333.43 A 0.61 0.61 0 0 1 71.06 334 Z" stroke-linecap="round" />
</g>
		<g transform="matrix(1 0 0 1 -190.13 51.64)"  >
<path style="stroke: rgb(0,0,0); stroke-width: 0.1; stroke-dasharray: none; stroke-linecap: butt; stroke-dashoffset: 0; stroke-linejoin: miter; stroke-miterlimit: 4; fill: rgb(255,255,255); fill-rule: nonzero; opacity: 1;"  transform=" translate(-59.87, -301.63)" d="M 68.65 304.12 a 0.39 0.39 0 0 1 -0.18 0 A 82.19 82.19 0 0 0 51 300.36 a 0.62 0.62 0 0 1 -0.55 -0.67 a 0.59 0.59 0 0 1 0.66 -0.55 a 83.69 83.69 0 0 1 17.78 3.8 a 0.61 0.61 0 0 1 0.37 0.78 A 0.62 0.62 0 0 1 68.65 304.12 Z" stroke-linecap="round" />
</g>
		<g transform="matrix(1 0 0 1 -25.7 -106.3)"  >
<path style="stroke: rgb(0,0,0); stroke-width: 0.1; stroke-dasharray: none; stroke-linecap: butt; stroke-dashoffset: 0; stroke-linejoin: miter; stroke-miterlimit: 4; fill: rgb(255,168,167); fill-rule: nonzero; opacity: 1;"  transform=" translate(-224.31, -143.71)" d="M 185.09 102.85 c 11.15 -0.43 15.53 0.26 19.52 5.11 c 4.34 5.26 19.22 53.58 19.22 53.58 l 39.69 13.75 l -14.76 9.38 s -24.28 -5 -31.45 -6.38 c -5.64 -1.09 -7.49 -1.15 -10.33 -8.36 c -3.93 -10 -20.71 -51.1 -20.71 -51.1 Z" stroke-linecap="round" />
</g>
		<g transform="matrix(1 0 0 1 -34.91 -107.42)"  >
<path style="stroke: rgb(0,0,0); stroke-width: 0.1; stroke-dasharray: none; stroke-linecap: butt; stroke-dashoffset: 0; stroke-linejoin: miter; stroke-miterlimit: 4; fill: rgb(69,90,100); fill-rule: nonzero; opacity: 1;"  transform=" translate(-215.09, -142.58)" d="M 186.43 102.59 c 6.32 -0.55 11.21 -0.31 14.79 1.64 s 5.09 4.34 7.52 10.43 s 15.64 45.93 15.64 45.93 l 19.38 6.9 l -4 15.34 s -21.07 -3.67 -25.42 -4.65 s -5.53 -1.93 -8 -7.58 S 189.51 129 189.51 129 Z" stroke-linecap="round" />
</g>
		<g transform="matrix(1 0 0 1 -120.89 146.53)"  >
<path style="stroke: rgb(0,0,0); stroke-width: 0.1; stroke-dasharray: none; stroke-linecap: butt; stroke-dashoffset: 0; stroke-linejoin: miter; stroke-miterlimit: 4; fill: rgb(38,50,56); fill-rule: nonzero; opacity: 1;"  transform=" translate(-129.1, -396.53)" d="M 143.87 407.82 c -0.41 1.65 -1.29 6.34 -10 6.34 s -13.7 -3.57 -15.41 -8 s -0.73 -7.7 -0.57 -11.56 s -2.71 -6.32 -3.35 -8.4 c -0.93 -3.07 1.63 -7.3 1.63 -7.3 Z" stroke-linecap="round" />
</g>
		<g transform="matrix(1 0 0 1 -48.54 135.78)"  >
<path style="stroke: rgb(0,0,0); stroke-width: 0.1; stroke-dasharray: none; stroke-linecap: butt; stroke-dashoffset: 0; stroke-linejoin: miter; stroke-miterlimit: 4; fill: rgb(38,50,56); fill-rule: nonzero; opacity: 1;"  transform=" translate(-201.46, -385.77)" d="M 225.5 383.8 c 0.32 0.23 0.51 2.94 -0.4 4.19 c -0.64 0.85 -6.47 5.09 -13.68 4.21 A 33.17 33.17 0 0 1 196.59 387 c -4.22 -2.48 -7.12 -2.84 -11.41 -2.83 s -7.22 -0.79 -7.57 -1.87 c -0.63 -1.89 -0.67 -3.1 0.24 -3.07 Z" stroke-linecap="round" />
</g>
		<g transform="matrix(1 0 0 1 -120.87 117.38)"  >
<path style="stroke: rgb(0,0,0); stroke-width: 0.1; stroke-dasharray: none; stroke-linecap: butt; stroke-dashoffset: 0; stroke-linejoin: miter; stroke-miterlimit: 4; fill: rgb(255,168,167); fill-rule: nonzero; opacity: 1;"  transform=" translate(-129.13, -367.38)" d="M 119.07 372.56 c 0 7.94 15.2 9.39 14.82 3 l 5.3 -18.55 L 122 355.19 Z" stroke-linecap="round" />
</g>
		<g transform="matrix(1 0 0 1 -120.51 140.69)"  >
<path style="stroke: rgb(0,0,0); stroke-width: 0.1; stroke-dasharray: none; stroke-linecap: butt; stroke-dashoffset: 0; stroke-linejoin: miter; stroke-miterlimit: 4; fill: rgb(38,50,56); fill-rule: nonzero; opacity: 1;"  transform=" translate(-129.49, -390.69)" d="M 143.79 403.85 c -0.56 -1.51 -2.49 -3.83 -3.29 -5.23 a 42.69 42.69 0 0 1 -5.76 -23.89 c 0 -0.46 0.09 -1.36 -0.33 -1.7 s -0.94 0 -1.46 0.13 c 0 0 0 0 0 0 v 0 a 9.08 9.08 0 0 1 -2.74 0.33 c -3.07 -0.08 -6.32 -1.27 -7.09 -1.27 c -0.6 0 -1 1.8 -1.26 3.78 c -1 -0.83 -1.15 -2.23 -2 -3.15 c -0.46 -0.5 -0.69 -0.54 -0.58 -1.24 c 0.07 -0.46 0.16 -0.86 0.22 -1.32 c -0.74 -0.34 -1.8 2.55 -2.76 4.74 c -1.1 2.53 -2.43 5.37 -1.76 8.19 a 23.07 23.07 0 0 0 1.85 4.46 a 17.36 17.36 0 0 1 2.06 8 c 0 1.21 -0.31 2.42 -0.3 3.63 a 10.67 10.67 0 0 0 6.26 9.71 c 5 2.34 12.85 3.16 17.94 0.15 C 144.53 408.12 144.35 405.36 143.79 403.85 Z" stroke-linecap="round" />
</g>
		<g transform="matrix(1 0 0 1 -62.56 104.35)"  >
<path style="stroke: rgb(0,0,0); stroke-width: 0.1; stroke-dasharray: none; stroke-linecap: butt; stroke-dashoffset: 0; stroke-linejoin: miter; stroke-miterlimit: 4; fill: rgb(255,168,167); fill-rule: nonzero; opacity: 1;"  transform=" translate(-187.44, -354.35)" d="M 180.88 366.1 c 4.3 3.08 8.27 3.46 13.31 0.93 L 196.74 340 H 178.15 Z" stroke-linecap="round" />
</g>
		<g transform="matrix(1 0 0 1 -87.82 30.68)"  >
<path style="stroke: rgb(0,0,0); stroke-width: 0.1; stroke-dasharray: none; stroke-linecap: butt; stroke-dashoffset: 0; stroke-linejoin: miter; stroke-miterlimit: 4; fill: rgb(38,50,56); fill-rule: nonzero; opacity: 1;"  transform=" translate(-162.19, -280.68)" d="M 140.18 192.62 c -3.43 31.49 -8 94 -8 94 S 127 296.12 125 311.31 c -2.49 18.76 -5.41 54.44 -5.41 54.44 s 8.78 5.71 17.31 2.95 c 0 0 19.52 -56.33 23.42 -74.8 c 3.4 -16.12 9.42 -49.22 9.42 -49.22 l 7.52 45.05 a 70.62 70.62 0 0 0 -2.43 21.95 c 0.36 8.68 3.78 41.84 3.78 41.84 c 2.83 2.67 13.69 3 17.31 0.73 c 0 0 5.21 -55.23 6 -64.34 c 1 -12 2.86 -98 2.86 -98 Z" stroke-linecap="round" />
</g>
		<g transform="matrix(1 0 0 1 -70.08 2.22)"  >
<path style="stroke: rgb(0,0,0); stroke-width: 0.1; stroke-dasharray: none; stroke-linecap: butt; stroke-dashoffset: 0; stroke-linejoin: miter; stroke-miterlimit: 4; fill: rgb(30,139,195); fill-rule: nonzero; opacity: 1;"  transform=" translate(-179.92, -252.22)" d="M 169.77 244.68 l 4.2 -19.37 s 9.39 -2.14 16.1 -7.52 c 0 0 -2.46 6.18 -12.75 10.91 L 173 246.84 l 3.69 39.81 Z" stroke-linecap="round" />
</g>
		<g transform="matrix(1 0 0 1 -48.75 125.25)"  >
<path style="stroke: rgb(0,0,0); stroke-width: 0.1; stroke-dasharray: none; stroke-linecap: butt; stroke-dashoffset: 0; stroke-linejoin: miter; stroke-miterlimit: 4; fill: rgb(38,50,56); fill-rule: nonzero; opacity: 1;"  transform=" translate(-201.25, -375.25)" d="M 221.81 378.38 c -7.11 -2.66 -14 -5.77 -18.41 -8.85 a 35.12 35.12 0 0 1 -3 -2.27 c -1.81 -1.82 -2.92 -5.78 -3.7 -6.23 c -0.26 -0.15 -0.62 0 -1.14 0.35 a 1.29 1.29 0 0 0 -0.83 -0.5 l -0.1 1.1 a 11.88 11.88 0 0 1 -4.87 1.77 c -4.36 0.56 -4.53 -0.32 -4.67 1.1 a 9.6 9.6 0 0 0 0 1.59 c -2.32 -0.3 -4.17 -1 -4.3 -1.85 l -0.39 -2.79 c -2.31 -0.12 -2.31 4 -2.89 8.66 c -0.47 3.77 -1.27 6.52 -0.14 9.23 c 3.6 2.91 9.71 1.94 13.23 2.39 c 5 0.63 7.43 4.21 14.4 6.33 c 11.24 3.43 18.08 -1.26 20.09 -3.27 C 226.43 382.63 225.69 379.83 221.81 378.38 Z" stroke-linecap="round" />
</g>
		<g transform="matrix(1 0 0 1 -78.21 -95.78)"  >
<path style="stroke: rgb(0,0,0); stroke-width: 0.1; stroke-dasharray: none; stroke-linecap: butt; stroke-dashoffset: 0; stroke-linejoin: miter; stroke-miterlimit: 4; fill: rgb(55,71,79); fill-rule: nonzero; opacity: 1;"  transform=" translate(-171.79, -154.22)" d="M 166.93 103.52 c -8.79 1.34 -15.78 1.69 -21.93 2.69 c -4.7 0.76 -6.12 8.81 -6.43 14 c -1 16.93 2.87 49.38 2.87 49.38 l -2.36 28.93 c 7.89 8.44 45.7 12.13 65.86 -0.24 c 0 0 0.54 -57.54 0 -67.24 c -0.95 -17.08 -10.82 -28 -17.12 -28.47 C 187.82 102.59 182.06 101.22 166.93 103.52 Z" stroke-linecap="round" />
</g>
		<g transform="matrix(1 0 0 1 -67.19 -89)"  >
<path style="stroke: rgb(0,0,0); stroke-width: 0.1; stroke-dasharray: none; stroke-linecap: butt; stroke-dashoffset: 0; stroke-linejoin: miter; stroke-miterlimit: 4; fill: rgb(38,50,56); fill-rule: nonzero; opacity: 1;"  transform=" translate(-182.81, -161)" d="M 182.67 205.48 c 0.89 -0.11 1.77 -0.25 2.64 -0.39 c 0.27 -11.4 0.56 -33.81 0.26 -44.62 c -0.52 -18.38 -2.91 -37.91 -5.65 -43.94 a 215.14 215.14 0 0 1 3.47 42.34 C 183.26 173.6 182.88 194.84 182.67 205.48 Z" stroke-linecap="round" />
</g>
		<g transform="matrix(1 0 0 1 -119.13 -86.49)"  >
<path style="stroke: rgb(0,0,0); stroke-width: 0.1; stroke-dasharray: none; stroke-linecap: butt; stroke-dashoffset: 0; stroke-linejoin: miter; stroke-miterlimit: 4; fill: rgb(255,168,167); fill-rule: nonzero; opacity: 1;"  transform=" translate(-130.86, -163.51)" d="M 101.86 162.25 c 21 -40 26.15 -48.71 32.3 -53.12 c 3.38 -2.42 11.73 -3.11 11.73 -3.11 c 3.48 3.75 5.91 17.47 -1.56 29.68 c 0 0 -17.65 24 -22.47 32 c 5.06 9.56 12.57 21.39 17.22 27.1 a 6.37 6.37 0 0 0 4.06 2.24 c 4.08 0.39 5.94 1.68 9.39 3 c 2.69 1 4.53 0.71 4.51 1.44 c 0 0.94 -0.91 2.86 -3.56 3.29 a 17.05 17.05 0 0 1 -4.81 -0.17 a 29.7 29.7 0 0 0 7.68 5.06 c 6.71 3.17 8.76 7.84 -1.13 10.82 c -3.95 1.2 -11.18 1 -20.95 -8.49 c -3.31 -3.21 -9.52 -9.84 -12.79 -13.6 c -8.56 -9.85 -15.64 -18.59 -20.19 -24.53 C 98.46 170.11 99.94 165.91 101.86 162.25 Z" stroke-linecap="round" />
</g>
		<g transform="matrix(1 0 0 1 -123.18 -57.32)"  >
<path style="stroke: rgb(0,0,0); stroke-width: 0.1; stroke-dasharray: none; stroke-linecap: butt; stroke-dashoffset: 0; stroke-linejoin: miter; stroke-miterlimit: 4; fill: rgb(55,71,79); fill-rule: nonzero; opacity: 1;"  transform=" translate(-126.83, -192.67)" d="M 131.5 183.57 l 5.69 8.77 s -9.39 2.3 -12.54 9.54 l -8.19 -8.72 s 0.52 -3.51 5.81 -7 S 131.5 183.57 131.5 183.57 Z" stroke-linecap="round" />
</g>
		<g transform="matrix(1 0 0 1 -125.34 -100.61)"  >
<path style="stroke: rgb(0,0,0); stroke-width: 0.1; stroke-dasharray: none; stroke-linecap: butt; stroke-dashoffset: 0; stroke-linejoin: miter; stroke-miterlimit: 4; fill: rgb(69,90,100); fill-rule: nonzero; opacity: 1;"  transform=" translate(-124.65, -149.4)" d="M 148.92 105.66 c -6.94 -0.06 -12.17 0.14 -16.27 3.23 s -10 13.29 -14.67 21.84 s -16.56 29.58 -18.27 34.45 S 99.15 172.45 102 176 s 14.51 17.14 14.51 17.14 c 3.65 -4.54 8.59 -8.61 15 -9.59 l -8.67 -15.94 l 20.31 -27.52 s 5.65 -7 6.89 -18.76 S 148.92 105.66 148.92 105.66 Z" stroke-linecap="round" />
</g>
		<g transform="matrix(1 0 0 1 -91.41 -176.36)"  >
<path style="stroke: rgb(0,0,0); stroke-width: 0.1; stroke-dasharray: none; stroke-linecap: butt; stroke-dashoffset: 0; stroke-linejoin: miter; stroke-miterlimit: 4; fill: rgb(38,50,56); fill-rule: nonzero; opacity: 1;"  transform=" translate(-158.59, -73.64)" d="M 158.42 52.62 s -4.82 0.67 -6.59 4.31 c -1.54 3.16 -1 10.79 1.07 19.11 s 4 13.33 5.19 15.63 a 6.35 6.35 0 0 0 3.68 3 l -0.24 -9.87 l -0.36 -6.88 s 4.42 -6 4.9 -11 c 0.62 -6.36 -0.71 -9 -0.71 -9 Z" stroke-linecap="round" />
</g>
		<g transform="matrix(1 0 0 1 -95.88 -198.93)"  >
<path style="stroke: rgb(0,0,0); stroke-width: 0.1; stroke-dasharray: none; stroke-linecap: butt; stroke-dashoffset: 0; stroke-linejoin: miter; stroke-miterlimit: 4; fill: rgb(38,50,56); fill-rule: nonzero; opacity: 1;"  transform=" translate(-154.12, -51.08)" d="M 157.29 53.83 l -6.8 -3.11 a 4 4 0 0 1 5.15 -2.11 A 3.82 3.82 0 0 1 157.29 53.83 Z" stroke-linecap="round" />
</g>
		<g transform="matrix(1 0 0 1 -65.36 -187.89)"  >
<path style="stroke: rgb(0,0,0); stroke-width: 0.1; stroke-dasharray: none; stroke-linecap: butt; stroke-dashoffset: 0; stroke-linejoin: miter; stroke-miterlimit: 4; fill: rgb(38,50,56); fill-rule: nonzero; opacity: 1;"  transform=" translate(-184.64, -62.11)" d="M 166.21 62.17 a 18.43 18.43 0 1 0 18.37 -18.49 A 18.43 18.43 0 0 0 166.21 62.17 Z" stroke-linecap="round" />
</g>
		<g transform="matrix(1 0 0 1 -75.56 -166.8)"  >
<path style="stroke: rgb(0,0,0); stroke-width: 0.1; stroke-dasharray: none; stroke-linecap: butt; stroke-dashoffset: 0; stroke-linejoin: miter; stroke-miterlimit: 4; fill: rgb(255,168,167); fill-rule: nonzero; opacity: 1;"  transform=" translate(-174.43, -83.19)" d="M 161.43 76.77 c -1.66 1.44 -3 -2.28 -4.4 -3.73 s -5.95 -3.43 -8.2 1.35 s 2.08 11.49 5.48 13.07 c 5 2.31 7.22 -2.71 7.22 -2.71 l 0.53 20.76 c 4.79 7.26 16 4.49 17.64 8.8 c 1 -3.83 6 -3.84 2.42 -8 l 0 -6.76 s 5.58 0.83 8.31 0.4 c 4.52 -0.72 6.89 -4.13 8.25 -9 c 2.18 -7.89 3.06 -21.14 0 -36.45 c -5.08 -3.93 -22.67 -3.28 -33.31 3.47 C 166.14 71.52 163.09 75.34 161.43 76.77 Z" stroke-linecap="round" />
</g>
		<g transform="matrix(1 0 0 1 -70.38 -201.41)"  >
<path style="stroke: rgb(0,0,0); stroke-width: 0.1; stroke-dasharray: none; stroke-linecap: butt; stroke-dashoffset: 0; stroke-linejoin: miter; stroke-miterlimit: 4; fill: rgb(38,50,56); fill-rule: nonzero; opacity: 1;"  transform=" translate(-179.61, -48.59)" d="M 201.2 43.62 a 0.85 0.85 0 0 0 -0.66 -0.51 a 1.15 1.15 0 0 0 -0.62 0.27 a 28.54 28.54 0 0 1 -4 2.72 a 14.34 14.34 0 0 0 0.07 -5.5 c -0.2 -1.12 -0.51 -3.71 -1.89 -4 c -0.83 -0.17 -1.54 0.52 -2.16 1.09 c -5.54 5.19 -12.77 2.79 -19.44 3 c -5.58 0.18 -12.31 2.45 -14.83 7.88 c -1.16 2.48 -1.36 5.09 0.92 6.81 a 15.66 15.66 0 0 0 6.81 2.54 c 11.11 1.93 27 6.51 35.26 -3.86 a 8.19 8.19 0 0 0 1.73 -5.43 a 11.37 11.37 0 0 0 -1.12 -5 Z" stroke-linecap="round" />
</g>
		<g transform="matrix(1 0 0 1 -77.2 -153.44)"  >
<path style="stroke: rgb(0,0,0); stroke-width: 0.1; stroke-dasharray: none; stroke-linecap: butt; stroke-dashoffset: 0; stroke-linejoin: miter; stroke-miterlimit: 4; fill: rgb(242,143,143); fill-rule: nonzero; opacity: 1;"  transform=" translate(-172.8, -96.56)" d="M 182.08 99.56 s -10.13 -2 -13.67 -3.88 a 11.58 11.58 0 0 1 -4.9 -4.82 a 16 16 0 0 0 2.79 5.7 c 2.6 3.3 15.79 5.69 15.79 5.69 Z" stroke-linecap="round" />
</g>
		<g transform="matrix(1 0 0 1 -72.55 -175.77)"  >
<path style="stroke: rgb(0,0,0); stroke-width: 0.1; stroke-dasharray: none; stroke-linecap: butt; stroke-dashoffset: 0; stroke-linejoin: miter; stroke-miterlimit: 4; fill: rgb(38,50,56); fill-rule: nonzero; opacity: 1;"  transform=" translate(-177.45, -74.23)" d="M 179.45 74.34 a 2 2 0 1 1 -2 -2.11 A 2.05 2.05 0 0 1 179.45 74.34 Z" stroke-linecap="round" />
</g>
		<g transform="matrix(1 0 0 1 -75.01 -182.76)"  >
<path style="stroke: rgb(0,0,0); stroke-width: 0.1; stroke-dasharray: none; stroke-linecap: butt; stroke-dashoffset: 0; stroke-linejoin: miter; stroke-miterlimit: 4; fill: rgb(38,50,56); fill-rule: nonzero; opacity: 1;"  transform=" translate(-174.99, -67.23)" d="M 177.28 66.69 L 173 69.1 a 2.6 2.6 0 0 1 1 -3.46 A 2.43 2.43 0 0 1 177.28 66.69 Z" stroke-linecap="round" />
</g>
		<g transform="matrix(1 0 0 1 -66.42 -160.39)"  >
<path style="stroke: rgb(0,0,0); stroke-width: 0.1; stroke-dasharray: none; stroke-linecap: butt; stroke-dashoffset: 0; stroke-linejoin: miter; stroke-miterlimit: 4; fill: rgb(242,143,143); fill-rule: nonzero; opacity: 1;"  transform=" translate(-183.58, -89.61)" d="M 180.45 87.23 l 6.47 2.4 a 3.4 3.4 0 0 1 -4.39 2.16 A 3.61 3.61 0 0 1 180.45 87.23 Z" stroke-linecap="round" />
</g>
		<g transform="matrix(1 0 0 1 -54.46 -183.2)"  >
<path style="stroke: rgb(0,0,0); stroke-width: 0.1; stroke-dasharray: none; stroke-linecap: butt; stroke-dashoffset: 0; stroke-linejoin: miter; stroke-miterlimit: 4; fill: rgb(38,50,56); fill-rule: nonzero; opacity: 1;"  transform=" translate(-195.54, -66.8)" d="M 197.32 68.82 l -4 -3 a 2.4 2.4 0 0 1 3.44 -0.54 A 2.63 2.63 0 0 1 197.32 68.82 Z" stroke-linecap="round" />
</g>
		<g transform="matrix(1 0 0 1 -55.88 -176.4)"  >
<path style="stroke: rgb(0,0,0); stroke-width: 0.1; stroke-dasharray: none; stroke-linecap: butt; stroke-dashoffset: 0; stroke-linejoin: miter; stroke-miterlimit: 4; fill: rgb(38,50,56); fill-rule: nonzero; opacity: 1;"  transform=" translate(-194.12, -73.6)" d="M 196.12 73.7 a 2 2 0 1 1 -2 -2.1 A 2.06 2.06 0 0 1 196.12 73.7 Z" stroke-linecap="round" />
</g>
		<g transform="matrix(1 0 0 1 -60.49 -172.09)"  >
<polygon style="stroke: rgb(0,0,0); stroke-width: 0.1; stroke-dasharray: none; stroke-linecap: butt; stroke-dashoffset: 0; stroke-linejoin: miter; stroke-miterlimit: 4; fill: rgb(242,143,143); fill-rule: nonzero; opacity: 1;"  points="-3.53,-6.09 -2.83,6.09 3.53,3.9 -3.53,-6.09 " />
</g>
		<g transform="matrix(1 0 0 1 -41.05 -126.5)"  >
<path style="stroke: rgb(0,0,0); stroke-width: 0.1; stroke-dasharray: none; stroke-linecap: butt; stroke-dashoffset: 0; stroke-linejoin: miter; stroke-miterlimit: 4; fill: rgb(149,106,254); fill-rule: nonzero; opacity: 1;"  transform=" translate(-208.94, -123.5)" d="M 235.35 141 c -7.22 0.69 -20.91 -1.68 -28.82 -6.75 c -10.38 -6.64 -18.71 -23.4 -21.89 -29.33 c 0 0 -2.65 -0.16 -2 0.8 s 9.24 21.49 23 30.18 c 7 4.41 19.92 6.73 29.4 6.07 Z" stroke-linecap="round" />
</g>
		<g transform="matrix(1 0 0 1 -41.05 -126.5)"  >
<path style="stroke: rgb(0,0,0); stroke-width: 0.1; stroke-dasharray: none; stroke-linecap: butt; stroke-dashoffset: 0; stroke-linejoin: miter; stroke-miterlimit: 4; fill: rgb(30,139,195); fill-rule: nonzero; opacity: 0.4;"  transform=" translate(-208.94, -123.5)" d="M 235.35 141 c -7.22 0.69 -20.91 -1.68 -28.82 -6.75 c -10.38 -6.64 -18.71 -23.4 -21.89 -29.33 c 0 0 -2.65 -0.16 -2 0.8 s 9.24 21.49 23 30.18 c 7 4.41 19.92 6.73 29.4 6.07 Z" stroke-linecap="round" />
</g>
		<g transform="matrix(1 0 0 1 -52.83 -125.06)"  >
<path style="stroke: rgb(0,0,0); stroke-width: 0.1; stroke-dasharray: none; stroke-linecap: butt; stroke-dashoffset: 0; stroke-linejoin: miter; stroke-miterlimit: 4; fill: rgb(149,106,254); fill-rule: nonzero; opacity: 1;"  transform=" translate(-197.18, -124.94)" d="M 235.35 141 s -26 4.25 -42.31 -1.41 c -15.4 -5.37 -27.43 -19.95 -31 -34.09 L 159 106 s 7.54 25.47 29.72 34.24 c 20.48 8.11 45 1.82 46.62 1.66 Z" stroke-linecap="round" />
</g>
		<g transform="matrix(1 0 0 1 -52.83 -125.06)"  >
<path style="stroke: rgb(0,0,0); stroke-width: 0.1; stroke-dasharray: none; stroke-linecap: butt; stroke-dashoffset: 0; stroke-linejoin: miter; stroke-miterlimit: 4; fill: rgb(30,139,195); fill-rule: nonzero; opacity: 0.3;"  transform=" translate(-197.18, -124.94)" d="M 235.35 141 s -26 4.25 -42.31 -1.41 c -15.4 -5.37 -27.43 -19.95 -31 -34.09 L 159 106 s 7.54 25.47 29.72 34.24 c 20.48 8.11 45 1.82 46.62 1.66 Z" stroke-linecap="round" />
</g>
		<g transform="matrix(1 0 0 1 -13.46 -108.77)"  >
<path style="stroke: rgb(0,0,0); stroke-width: 0.1; stroke-dasharray: none; stroke-linecap: butt; stroke-dashoffset: 0; stroke-linejoin: miter; stroke-miterlimit: 4; fill: rgb(149,106,254); fill-rule: nonzero; opacity: 1;"  transform=" translate(-236.54, -141.23)" d="M 238 140.29 s -1.92 0.29 -2.69 0.48 c -1.07 0.27 -1.51 1.53 -0.41 1.42 s 1.77 -0.26 2.75 -0.42 S 239.52 140.05 238 140.29 Z" stroke-linecap="round" />
</g>
		<g transform="matrix(1 0 0 1 -10.96 -109.07)"  >
<path style="stroke: rgb(0,0,0); stroke-width: 0.1; stroke-dasharray: none; stroke-linecap: butt; stroke-dashoffset: 0; stroke-linejoin: miter; stroke-miterlimit: 4; fill: rgb(149,106,254); fill-rule: nonzero; opacity: 1;"  transform=" translate(-239.04, -140.93)" d="M 237.57 141.12 s 2.31 0.27 2.32 0.25 s 0.62 -0.78 0.62 -0.78 l -2 -0.11 Z" stroke-linecap="round" />
</g>
		<g transform="matrix(1 0 0 1 -10.96 -109.07)"  >
<path style="stroke: rgb(0,0,0); stroke-width: 0.1; stroke-dasharray: none; stroke-linecap: butt; stroke-dashoffset: 0; stroke-linejoin: miter; stroke-miterlimit: 4; fill: rgb(30,139,195); fill-rule: nonzero; opacity: 0.4;"  transform=" translate(-239.04, -140.93)" d="M 237.57 141.12 s 2.31 0.27 2.32 0.25 s 0.62 -0.78 0.62 -0.78 l -2 -0.11 Z" stroke-linecap="round" />
</g>
		<g transform="matrix(1 0 0 1 -7.65 -108.06)"  >
<path style="stroke: rgb(0,0,0); stroke-width: 0.1; stroke-dasharray: none; stroke-linecap: butt; stroke-dashoffset: 0; stroke-linejoin: miter; stroke-miterlimit: 4; fill: rgb(38,50,56); fill-rule: nonzero; opacity: 1;"  transform=" translate(-242.35, -141.94)" d="M 239 141.31 l 5.39 1.33 l 1.32 -0.76 A 20 20 0 0 0 239 141.31 Z" stroke-linecap="round" />
</g>
		<g transform="matrix(1 0 0 1 -8.32 -107.91)"  >
<polygon style="stroke: rgb(0,0,0); stroke-width: 0.1; stroke-dasharray: none; stroke-linecap: butt; stroke-dashoffset: 0; stroke-linejoin: miter; stroke-miterlimit: 4; fill: rgb(55,71,79); fill-rule: nonzero; opacity: 1;"  points="-2.7,-0.78 -2.7,-0.47 2.32,0.78 2.69,0.55 -2.7,-0.78 " />
</g>
		<g transform="matrix(1 0 0 1 -0.23 -88.19)"  >
<path style="stroke: rgb(0,0,0); stroke-width: 0.1; stroke-dasharray: none; stroke-linecap: butt; stroke-dashoffset: 0; stroke-linejoin: miter; stroke-miterlimit: 4; fill: rgb(149,106,254); fill-rule: nonzero; opacity: 1;"  transform=" translate(-249.77, -161.81)" d="M 260.91 136.38 s 0 -0.1 0 -0.14 s 0 0 0 -0.05 a 0.64 0.64 0 0 0 -0.1 -0.13 a 0.35 0.35 0 0 0 -0.13 -0.11 l -0.05 0 l -2 -1.14 a 0.74 0.74 0 0 0 -0.76 0.08 l -18.16 10.47 a 2.42 2.42 0 0 0 -1.08 1.89 V 187 a 0.74 0.74 0 0 0 0.32 0.7 l 2 1.17 l 0 0 l 0.11 0 a 0.49 0.49 0 0 0 0.24 0 a 1 1 0 0 0 0.37 -0.13 l 18.16 -10.48 a 2.37 2.37 0 0 0 1.08 -1.87 V 136.65 A 1.12 1.12 0 0 0 260.91 136.38 Z m -9.49 7.27 L 247.34 146 a 2.71 2.71 0 0 1 1.15 -1.49 l 4.08 -2.35 A 2.73 2.73 0 0 1 251.42 143.65 Z" stroke-linecap="round" />
</g>
		<g transform="matrix(1 0 0 1 -0.23 -88.19)"  >
<path style="stroke: rgb(0,0,0); stroke-width: 0.1; stroke-dasharray: none; stroke-linecap: butt; stroke-dashoffset: 0; stroke-linejoin: miter; stroke-miterlimit: 4; fill: rgb(30,139,195); fill-rule: nonzero; opacity: 0.15;"  transform=" translate(-249.77, -161.81)" d="M 260.91 136.38 s 0 -0.1 0 -0.14 s 0 0 0 -0.05 a 0.64 0.64 0 0 0 -0.1 -0.13 a 0.35 0.35 0 0 0 -0.13 -0.11 l -0.05 0 l -2 -1.14 a 0.74 0.74 0 0 0 -0.76 0.08 l -18.16 10.47 a 2.42 2.42 0 0 0 -1.08 1.89 V 187 a 0.74 0.74 0 0 0 0.32 0.7 l 2 1.17 l 0 0 l 0.11 0 a 0.49 0.49 0 0 0 0.24 0 a 1 1 0 0 0 0.37 -0.13 l 18.16 -10.48 a 2.37 2.37 0 0 0 1.08 -1.87 V 136.65 A 1.12 1.12 0 0 0 260.91 136.38 Z m -9.49 7.27 L 247.34 146 a 2.71 2.71 0 0 1 1.15 -1.49 l 4.08 -2.35 A 2.73 2.73 0 0 1 251.42 143.65 Z" stroke-linecap="round" />
</g>
		<g transform="matrix(1 0 0 1 -10.17 -82.51)"  >
<path style="stroke: rgb(0,0,0); stroke-width: 0.1; stroke-dasharray: none; stroke-linecap: butt; stroke-dashoffset: 0; stroke-linejoin: miter; stroke-miterlimit: 4; fill: rgb(149,106,254); fill-rule: nonzero; opacity: 1;"  transform=" translate(-239.84, -167.5)" d="M 241 188.84 l 0 0 l -2 -1.17 a 0.74 0.74 0 0 1 -0.32 -0.7 V 147.22 a 2.17 2.17 0 0 1 0.32 -1.07 l 2 1.17 a 2.17 2.17 0 0 0 -0.32 1.07 v 39.73 A 0.73 0.73 0 0 0 241 188.84 Z" stroke-linecap="round" />
</g>
		<g transform="matrix(1 0 0 1 -10.17 -82.51)"  >
<path style="stroke: rgb(0,0,0); stroke-width: 0.1; stroke-dasharray: none; stroke-linecap: butt; stroke-dashoffset: 0; stroke-linejoin: miter; stroke-miterlimit: 4; fill: rgb(30,139,195); fill-rule: nonzero; opacity: 0.3;"  transform=" translate(-239.84, -167.5)" d="M 241 188.84 l 0 0 l -2 -1.17 a 0.74 0.74 0 0 1 -0.32 -0.7 V 147.22 a 2.17 2.17 0 0 1 0.32 -1.07 l 2 1.17 a 2.17 2.17 0 0 0 -0.32 1.07 v 39.73 A 0.73 0.73 0 0 0 241 188.84 Z" stroke-linecap="round" />
</g>
		<g transform="matrix(1 0 0 1 0.83 -87.6)"  >
<path style="stroke: rgb(0,0,0); stroke-width: 0.1; stroke-dasharray: none; stroke-linecap: butt; stroke-dashoffset: 0; stroke-linejoin: miter; stroke-miterlimit: 4; fill: rgb(149,106,254); fill-rule: nonzero; opacity: 1;"  transform=" translate(-250.84, -162.4)" d="M 260.91 136.38 s 0 -0.1 0 -0.14 s 0 0 0 -0.05 a 0.64 0.64 0 0 0 -0.1 -0.13 a 0.35 0.35 0 0 0 -0.13 -0.11 l -0.05 0 a 0.8 0.8 0 0 0 -0.71 0.11 l -8.44 4.87 l -4.61 2.66 l -5.11 2.95 a 2.43 2.43 0 0 0 -1.08 1.88 v 39.73 a 0.73 0.73 0 0 0 0.36 0.72 l 0.11 0 a 0.49 0.49 0 0 0 0.24 0 a 1 1 0 0 0 0.37 -0.13 l 18.16 -10.48 a 2.37 2.37 0 0 0 1.08 -1.87 V 136.65 A 1.12 1.12 0 0 0 260.91 136.38 Z m -12.42 8.15 l 4.08 -2.35 a 2.73 2.73 0 0 1 -1.15 1.47 L 247.34 146 A 2.71 2.71 0 0 1 248.49 144.53 Z" stroke-linecap="round" />
</g>
		<g transform="matrix(1 0 0 1 0.8 -105.43)"  >
<path style="stroke: rgb(0,0,0); stroke-width: 0.1; stroke-dasharray: none; stroke-linecap: butt; stroke-dashoffset: 0; stroke-linejoin: miter; stroke-miterlimit: 4; fill: rgb(30,139,195); fill-rule: nonzero; opacity: 0.2;"  transform=" translate(-250.8, -144.58)" d="M 254.38 142.51 a 2.74 2.74 0 0 1 -1.27 2.11 l -4.62 2.67 c -0.7 0.4 -1.27 0.12 -1.27 -0.64 a 1.8 1.8 0 0 1 0.12 -0.63 l 4.08 -2.37 a 2.73 2.73 0 0 0 1.15 -1.47 l 0.54 -0.31 C 253.81 141.46 254.38 141.75 254.38 142.51 Z" stroke-linecap="round" />
</g>
		<g transform="matrix(1 0 0 1 0.78 -93.02)"  >
<path style="stroke: rgb(0,0,0); stroke-width: 0.1; stroke-dasharray: none; stroke-linecap: butt; stroke-dashoffset: 0; stroke-linejoin: miter; stroke-miterlimit: 4; fill: rgb(250,250,250); fill-rule: nonzero; opacity: 1;"  transform=" translate(-250.78, -156.97)" d="M 244.32 152 l 12.92 -7.46 c 0.23 -0.13 0.42 0 0.42 0.24 v 16.45 a 0.93 0.93 0 0 1 -0.42 0.73 l -12.92 7.45 c -0.23 0.13 -0.42 0 -0.42 -0.25 V 152.72 A 0.94 0.94 0 0 1 244.32 152 Z" stroke-linecap="round" />
</g>
		<g transform="matrix(1 0 0 1 4.71 -89.38)"  >
<path style="stroke: rgb(0,0,0); stroke-width: 0.1; stroke-dasharray: none; stroke-linecap: butt; stroke-dashoffset: 0; stroke-linejoin: miter; stroke-miterlimit: 4; fill: rgb(69,90,100); fill-rule: nonzero; opacity: 1;"  transform=" translate(-254.7, -160.61)" d="M 257 162.1 l -2 1.17 l -0.24 0.15 c -0.81 -1.13 -1.53 -2.17 -1.53 -2.17 a 18.32 18.32 0 0 1 -0.55 -1.86 h 0 a 11.52 11.52 0 0 1 -0.27 -1.47 h 0 a 2.81 2.81 0 0 1 1.59 0 a 2.75 2.75 0 0 1 1.21 1.15 C 255.47 159.62 256.34 161.05 257 162.1 Z" stroke-linecap="round" />
</g>
		<g transform="matrix(1 0 0 1 1.02 -87.09)"  >
<path style="stroke: rgb(0,0,0); stroke-width: 0.1; stroke-dasharray: none; stroke-linecap: butt; stroke-dashoffset: 0; stroke-linejoin: miter; stroke-miterlimit: 4; fill: rgb(55,71,79); fill-rule: nonzero; opacity: 1;"  transform=" translate(-251.03, -162.91)" d="M 254.94 163.27 l -0.24 0.15 l -2.35 1.35 L 252 165 l -4.7 2.71 l -0.19 0.11 l 0 -0.81 l 0.23 -3.75 c 0 -0.73 0.38 -3.61 0.38 -3.61 l 1.06 -0.42 l 0.65 -0.26 l 0.21 -0.08 l 0.08 0 l 1.78 -0.71 l 0.34 -0.1 h 0 a 0.35 0.35 0 0 1 0.11 0 a 2 2 0 0 1 0.42 -0.07 h 0 c 1.32 -0.1 2 0.89 2.35 2.48 A 26.65 26.65 0 0 1 254.94 163.27 Z" stroke-linecap="round" />
</g>
		<g transform="matrix(1 0 0 1 2.01 -87.5)"  >
<path style="stroke: rgb(0,0,0); stroke-width: 0.1; stroke-dasharray: none; stroke-linecap: butt; stroke-dashoffset: 0; stroke-linejoin: miter; stroke-miterlimit: 4; fill: rgb(38,50,56); fill-rule: nonzero; opacity: 1;"  transform=" translate(-252.01, -162.5)" d="M 252.35 164.77 L 252 165 a 14.75 14.75 0 0 0 -0.36 -5 A 11.53 11.53 0 0 1 252.35 164.77 Z" stroke-linecap="round" />
</g>
		<g transform="matrix(1 0 0 1 -3.62 -85.52)"  >
<path style="stroke: rgb(0,0,0); stroke-width: 0.1; stroke-dasharray: none; stroke-linecap: butt; stroke-dashoffset: 0; stroke-linejoin: miter; stroke-miterlimit: 4; fill: rgb(69,90,100); fill-rule: nonzero; opacity: 1;"  transform=" translate(-246.38, -164.48)" d="M 248.11 164.22 s -0.44 1.72 -0.82 3.47 l -0.19 0.11 l -2.66 1.53 c 0.47 -4.77 0.79 -7.31 1.55 -8.59 a 2.72 2.72 0 0 1 1.7 -1.11 C 248.29 160.08 248.54 162.22 248.11 164.22 Z" stroke-linecap="round" />
</g>
		<g transform="matrix(1 0 0 1 -1.01 -95.66)"  >
<path style="stroke: rgb(0,0,0); stroke-width: 0.1; stroke-dasharray: none; stroke-linecap: butt; stroke-dashoffset: 0; stroke-linejoin: miter; stroke-miterlimit: 4; fill: rgb(38,50,56); fill-rule: nonzero; opacity: 1;"  transform=" translate(-248.99, -154.35)" d="M 248.94 151.33 a 1.48 1.48 0 0 0 -0.83 0.77 a 6 6 0 0 0 0.14 2.76 a 11.22 11.22 0 0 0 0.65 2.16 a 0.65 0.65 0 0 0 0.47 0.34 l 0 -1.43 l -0.05 -1 a 5.19 5.19 0 0 0 0.62 -1.7 a 2.77 2.77 0 0 0 -0.09 -1.29 Z" stroke-linecap="round" />
</g>
		<g transform="matrix(1 0 0 1 -1.6 -98.84)"  >
<path style="stroke: rgb(0,0,0); stroke-width: 0.1; stroke-dasharray: none; stroke-linecap: butt; stroke-dashoffset: 0; stroke-linejoin: miter; stroke-miterlimit: 4; fill: rgb(38,50,56); fill-rule: nonzero; opacity: 1;"  transform=" translate(-248.4, -151.16)" d="M 248.8 151.53 l -0.86 -0.3 c 0.13 -0.32 0.42 -0.51 0.65 -0.42 S 248.92 151.21 248.8 151.53 Z" stroke-linecap="round" />
</g>
		<g transform="matrix(1 0 0 1 2.25 -97.87)"  >
<path style="stroke: rgb(0,0,0); stroke-width: 0.1; stroke-dasharray: none; stroke-linecap: butt; stroke-dashoffset: 0; stroke-linejoin: miter; stroke-miterlimit: 4; fill: rgb(38,50,56); fill-rule: nonzero; opacity: 1;"  transform=" translate(-252.25, -152.13)" d="M 249.93 152.54 a 2.05 2.05 0 0 0 2.32 2.27 a 3.13 3.13 0 0 0 2.32 -3.1 a 2.05 2.05 0 0 0 -2.33 -2.26 A 3.11 3.11 0 0 0 249.93 152.54 Z" stroke-linecap="round" />
</g>
		<g transform="matrix(1 0 0 1 0.98 -94.82)"  >
<path style="stroke: rgb(0,0,0); stroke-width: 0.1; stroke-dasharray: none; stroke-linecap: butt; stroke-dashoffset: 0; stroke-linejoin: miter; stroke-miterlimit: 4; fill: rgb(255,168,167); fill-rule: nonzero; opacity: 1;"  transform=" translate(-250.98, -155.17)" d="M 249.32 154.77 c -0.21 0.25 -0.38 -0.26 -0.55 -0.44 s -0.75 -0.37 -1 0.38 a 1.52 1.52 0 0 0 0.69 1.78 c 0.62 0.22 0.91 -0.56 0.91 -0.56 l 0.06 3.23 c 0.61 1 2 0 2.22 0.68 c 0 -0.53 0.76 -0.71 0.31 -1.23 v -1 a 4 4 0 0 0 1.05 -0.13 a 1.84 1.84 0 0 0 1 -1.49 a 13.9 13.9 0 0 0 0 -5.31 c -0.63 -0.46 -2.85 0 -4.19 1.25 C 249.92 153.91 249.53 154.53 249.32 154.77 Z" stroke-linecap="round" />
</g>
		<g transform="matrix(1 0 0 1 1.6 -99.89)"  >
<path style="stroke: rgb(0,0,0); stroke-width: 0.1; stroke-dasharray: none; stroke-linecap: butt; stroke-dashoffset: 0; stroke-linejoin: miter; stroke-miterlimit: 4; fill: rgb(38,50,56); fill-rule: nonzero; opacity: 1;"  transform=" translate(-251.6, -150.11)" d="M 254.33 149.07 s 0 -0.07 -0.08 -0.06 s -0.05 0 -0.08 0.05 a 4.15 4.15 0 0 1 -0.51 0.49 a 2.45 2.45 0 0 0 0 -0.81 c 0 -0.15 -0.06 -0.52 -0.24 -0.53 s -0.19 0.11 -0.27 0.21 c -0.7 0.87 -1.61 0.68 -2.45 0.86 a 2.56 2.56 0 0 0 -1.87 1.48 c -0.14 0.39 -0.17 0.77 0.12 1 a 1.6 1.6 0 0 0 0.86 0.22 c 1.4 0 3.41 0.34 4.44 -1.35 a 1.54 1.54 0 0 0 0.22 -0.83 a 1.72 1.72 0 0 0 -0.14 -0.69 Z" stroke-linecap="round" />
</g>
		<g transform="matrix(1 0 0 1 0.76 -92.6)"  >
<path style="stroke: rgb(0,0,0); stroke-width: 0.1; stroke-dasharray: none; stroke-linecap: butt; stroke-dashoffset: 0; stroke-linejoin: miter; stroke-miterlimit: 4; fill: rgb(242,143,143); fill-rule: nonzero; opacity: 1;"  transform=" translate(-250.76, -157.4)" d="M 251.92 157.63 a 8 8 0 0 1 -1.72 -0.26 a 1.28 1.28 0 0 1 -0.62 -0.59 a 2.08 2.08 0 0 0 0.36 0.76 c 0.32 0.43 2 0.48 2 0.48 Z" stroke-linecap="round" />
</g>
		<g transform="matrix(1 0 0 1 1.34 -95.95)"  >
<path style="stroke: rgb(0,0,0); stroke-width: 0.1; stroke-dasharray: none; stroke-linecap: butt; stroke-dashoffset: 0; stroke-linejoin: miter; stroke-miterlimit: 4; fill: rgb(38,50,56); fill-rule: nonzero; opacity: 1;"  transform=" translate(-251.34, -154.04)" d="M 251.59 154 a 0.34 0.34 0 0 1 -0.25 0.35 c -0.14 0 -0.26 -0.09 -0.26 -0.26 a 0.35 0.35 0 0 1 0.26 -0.35 C 251.48 153.73 251.59 153.85 251.59 154 Z" stroke-linecap="round" />
</g>
		<g transform="matrix(1 0 0 1 1.03 -96.85)"  >
<path style="stroke: rgb(0,0,0); stroke-width: 0.1; stroke-dasharray: none; stroke-linecap: butt; stroke-dashoffset: 0; stroke-linejoin: miter; stroke-miterlimit: 4; fill: rgb(38,50,56); fill-rule: nonzero; opacity: 1;"  transform=" translate(-251.03, -153.14)" d="M 251.32 153 l -0.55 0.44 a 0.45 0.45 0 0 1 0.13 -0.52 A 0.26 0.26 0 0 1 251.32 153 Z" stroke-linecap="round" />
</g>
		<g transform="matrix(1 0 0 1 2.08 -93.86)"  >
<path style="stroke: rgb(0,0,0); stroke-width: 0.1; stroke-dasharray: none; stroke-linecap: butt; stroke-dashoffset: 0; stroke-linejoin: miter; stroke-miterlimit: 4; fill: rgb(242,143,143); fill-rule: nonzero; opacity: 1;"  transform=" translate(-252.08, -156.14)" d="M 251.74 155.87 l 0.71 0.18 a 0.44 0.44 0 0 1 -0.48 0.36 A 0.41 0.41 0 0 1 251.74 155.87 Z" stroke-linecap="round" />
</g>
		<g transform="matrix(1 0 0 1 3.54 -97.52)"  >
<path style="stroke: rgb(0,0,0); stroke-width: 0.1; stroke-dasharray: none; stroke-linecap: butt; stroke-dashoffset: 0; stroke-linejoin: miter; stroke-miterlimit: 4; fill: rgb(38,50,56); fill-rule: nonzero; opacity: 1;"  transform=" translate(-253.54, -152.49)" d="M 253.76 152.76 l -0.5 -0.35 a 0.31 0.31 0 0 1 0.44 -0.16 A 0.41 0.41 0 0 1 253.76 152.76 Z" stroke-linecap="round" />
</g>
		<g transform="matrix(1 0 0 1 3.36 -96.38)"  >
<path style="stroke: rgb(0,0,0); stroke-width: 0.1; stroke-dasharray: none; stroke-linecap: butt; stroke-dashoffset: 0; stroke-linejoin: miter; stroke-miterlimit: 4; fill: rgb(38,50,56); fill-rule: nonzero; opacity: 1;"  transform=" translate(-253.36, -153.61)" d="M 253.61 153.57 a 0.34 0.34 0 0 1 -0.25 0.35 c -0.14 0 -0.26 -0.09 -0.26 -0.26 a 0.35 0.35 0 0 1 0.26 -0.35 C 253.5 153.29 253.61 153.4 253.61 153.57 Z" stroke-linecap="round" />
</g>
		<g transform="matrix(1 0 0 1 2.86 -95.61)"  >
<polygon style="stroke: rgb(0,0,0); stroke-width: 0.1; stroke-dasharray: none; stroke-linecap: butt; stroke-dashoffset: 0; stroke-linejoin: miter; stroke-miterlimit: 4; fill: rgb(242,143,143); fill-rule: nonzero; opacity: 1;"  points="-0.45,-0.88 -0.36,0.88 0.45,0.42 -0.45,-0.88 " />
</g>
		<g transform="matrix(1 0 0 1 0.16 -90.55)"  >
<path style="stroke: rgb(0,0,0); stroke-width: 0.1; stroke-dasharray: none; stroke-linecap: butt; stroke-dashoffset: 0; stroke-linejoin: miter; stroke-miterlimit: 4; fill: rgb(69,90,100); fill-rule: nonzero; opacity: 1;"  transform=" translate(-250.16, -159.45)" d="M 249.38 157.91 c -0.17 0 -0.23 0.08 -0.36 0.41 l -0.28 0.72 a 1.86 1.86 0 0 0 0.55 1.23 A 3.85 3.85 0 0 0 251 161 s 0.1 -0.66 0.17 -0.94 c 0.17 -0.61 0.42 -0.2 0.42 -0.2 a 0.64 0.64 0 0 0 -0.13 -0.32 a 5.32 5.32 0 0 1 -1.34 -0.3 a 1.84 1.84 0 0 1 -0.77 -0.94 Z" stroke-linecap="round" />
</g>
		<g transform="matrix(1 0 0 1 2.12 -90.9)"  >
<path style="stroke: rgb(0,0,0); stroke-width: 0.1; stroke-dasharray: none; stroke-linecap: butt; stroke-dashoffset: 0; stroke-linejoin: miter; stroke-miterlimit: 4; fill: rgb(69,90,100); fill-rule: nonzero; opacity: 1;"  transform=" translate(-252.12, -159.1)" d="M 251.62 159.84 a 0.84 0.84 0 0 1 0.15 -0.54 a 1.58 1.58 0 0 0 0.15 -0.8 c 0 -0.27 0 -0.87 0 -0.87 c 0.19 0 0.33 0 0.44 0.31 a 3.45 3.45 0 0 1 0.24 1.64 a 1.94 1.94 0 0 1 -0.35 1 s -0.14 -0.54 -0.23 -0.78 S 251.76 159.48 251.62 159.84 Z" stroke-linecap="round" />
</g>
		<g transform="matrix(1 0 0 1 0.78 -81.51)"  >
<path style="stroke: rgb(0,0,0); stroke-width: 0.1; stroke-dasharray: none; stroke-linecap: butt; stroke-dashoffset: 0; stroke-linejoin: miter; stroke-miterlimit: 4; fill: rgb(69,90,100); fill-rule: nonzero; opacity: 1;"  transform=" translate(-250.78, -168.49)" d="M 246.52 170.17 l 8.52 -4.92 c 0.31 -0.18 0.56 0 0.56 0.33 v 0.22 a 1.23 1.23 0 0 1 -0.56 1 l -8.52 4.92 c -0.31 0.18 -0.56 0 -0.56 -0.33 v -0.22 A 1.23 1.23 0 0 1 246.52 170.17 Z" stroke-linecap="round" />
</g>
		<g transform="matrix(1 0 0 1 -4.06 -74.71)"  >
<path style="stroke: rgb(0,0,0); stroke-width: 0.1; stroke-dasharray: none; stroke-linecap: butt; stroke-dashoffset: 0; stroke-linejoin: miter; stroke-miterlimit: 4; fill: rgb(69,90,100); fill-rule: nonzero; opacity: 1;"  transform=" translate(-245.94, -175.29)" d="M 244.44 175.92 l 3 -1.76 c 0.13 -0.07 0.23 0 0.23 0.12 a 0.51 0.51 0 0 1 -0.23 0.39 l -3 1.76 c -0.13 0.07 -0.23 0 -0.23 -0.12 A 0.51 0.51 0 0 1 244.44 175.92 Z" stroke-linecap="round" />
</g>
		<g transform="matrix(1 0 0 1 3.41 -79)"  >
<path style="stroke: rgb(0,0,0); stroke-width: 0.1; stroke-dasharray: none; stroke-linecap: butt; stroke-dashoffset: 0; stroke-linejoin: miter; stroke-miterlimit: 4; fill: rgb(69,90,100); fill-rule: nonzero; opacity: 1;"  transform=" translate(-253.41, -171)" d="M 249.7 172.89 l 7.42 -4.29 c 0.13 -0.07 0.23 0 0.23 0.12 a 0.49 0.49 0 0 1 -0.23 0.39 l -7.42 4.28 c -0.13 0.08 -0.23 0 -0.23 -0.12 A 0.47 0.47 0 0 1 249.7 172.89 Z" stroke-linecap="round" />
</g>
		<g transform="matrix(1 0 0 1 -4.06 -73.7)"  >
<path style="stroke: rgb(0,0,0); stroke-width: 0.1; stroke-dasharray: none; stroke-linecap: butt; stroke-dashoffset: 0; stroke-linejoin: miter; stroke-miterlimit: 4; fill: rgb(69,90,100); fill-rule: nonzero; opacity: 1;"  transform=" translate(-245.94, -176.3)" d="M 244.44 176.93 l 3 -1.76 c 0.13 -0.07 0.23 0 0.23 0.12 a 0.49 0.49 0 0 1 -0.23 0.39 l -3 1.76 c -0.13 0.07 -0.23 0 -0.23 -0.12 A 0.51 0.51 0 0 1 244.44 176.93 Z" stroke-linecap="round" />
</g>
		<g transform="matrix(1 0 0 1 3.41 -77.99)"  >
<path style="stroke: rgb(0,0,0); stroke-width: 0.1; stroke-dasharray: none; stroke-linecap: butt; stroke-dashoffset: 0; stroke-linejoin: miter; stroke-miterlimit: 4; fill: rgb(69,90,100); fill-rule: nonzero; opacity: 1;"  transform=" translate(-253.41, -172.01)" d="M 249.7 173.9 l 7.42 -4.28 c 0.13 -0.08 0.23 0 0.23 0.11 a 0.49 0.49 0 0 1 -0.23 0.39 l -7.42 4.28 c -0.13 0.08 -0.23 0 -0.23 -0.11 A 0.49 0.49 0 0 1 249.7 173.9 Z" stroke-linecap="round" />
</g>
		<g transform="matrix(1 0 0 1 -4.06 -72.68)"  >
<path style="stroke: rgb(0,0,0); stroke-width: 0.1; stroke-dasharray: none; stroke-linecap: butt; stroke-dashoffset: 0; stroke-linejoin: miter; stroke-miterlimit: 4; fill: rgb(69,90,100); fill-rule: nonzero; opacity: 1;"  transform=" translate(-245.94, -177.32)" d="M 244.44 177.94 l 3 -1.75 c 0.13 -0.08 0.23 0 0.23 0.11 a 0.49 0.49 0 0 1 -0.23 0.39 l -3 1.76 c -0.13 0.07 -0.23 0 -0.23 -0.12 A 0.51 0.51 0 0 1 244.44 177.94 Z" stroke-linecap="round" />
</g>
		<g transform="matrix(1 0 0 1 3.41 -76.97)"  >
<path style="stroke: rgb(0,0,0); stroke-width: 0.1; stroke-dasharray: none; stroke-linecap: butt; stroke-dashoffset: 0; stroke-linejoin: miter; stroke-miterlimit: 4; fill: rgb(69,90,100); fill-rule: nonzero; opacity: 1;"  transform=" translate(-253.41, -173.02)" d="M 249.7 174.91 l 7.42 -4.28 c 0.13 -0.08 0.23 0 0.23 0.12 a 0.47 0.47 0 0 1 -0.23 0.38 l -7.42 4.29 c -0.13 0.07 -0.23 0 -0.23 -0.12 A 0.49 0.49 0 0 1 249.7 174.91 Z" stroke-linecap="round" />
</g>
		<g transform="matrix(1 0 0 1 -4.06 -71.63)"  >
<path style="stroke: rgb(0,0,0); stroke-width: 0.1; stroke-dasharray: none; stroke-linecap: butt; stroke-dashoffset: 0; stroke-linejoin: miter; stroke-miterlimit: 4; fill: rgb(69,90,100); fill-rule: nonzero; opacity: 1;"  transform=" translate(-245.94, -178.37)" d="M 244.44 179 l 3 -1.76 c 0.13 -0.08 0.23 0 0.23 0.12 a 0.49 0.49 0 0 1 -0.23 0.38 l -3 1.76 c -0.13 0.08 -0.23 0 -0.23 -0.12 A 0.47 0.47 0 0 1 244.44 179 Z" stroke-linecap="round" />
</g>
		<g transform="matrix(1 0 0 1 3.41 -75.96)"  >
<path style="stroke: rgb(0,0,0); stroke-width: 0.1; stroke-dasharray: none; stroke-linecap: butt; stroke-dashoffset: 0; stroke-linejoin: miter; stroke-miterlimit: 4; fill: rgb(69,90,100); fill-rule: nonzero; opacity: 1;"  transform=" translate(-253.41, -174.03)" d="M 249.7 175.92 l 7.42 -4.28 c 0.13 -0.08 0.23 0 0.23 0.12 a 0.51 0.51 0 0 1 -0.23 0.39 l -7.42 4.28 c -0.13 0.07 -0.23 0 -0.23 -0.12 A 0.51 0.51 0 0 1 249.7 175.92 Z" stroke-linecap="round" />
</g>
		<g transform="matrix(1 0 0 1 -4.02 -67.92)"  >
<polygon style="stroke: rgb(0,0,0); stroke-width: 0.1; stroke-dasharray: none; stroke-linecap: butt; stroke-dashoffset: 0; stroke-linejoin: miter; stroke-miterlimit: 4; fill: rgb(69,90,100); fill-rule: nonzero; opacity: 1;"  points="-0.46,-1.31 -0.46,1.84 0.46,1.33 0.46,-1.84 -0.46,-1.31 " />
</g>
		<g transform="matrix(1 0 0 1 -1.28 -69.51)"  >
<polygon style="stroke: rgb(0,0,0); stroke-width: 0.1; stroke-dasharray: none; stroke-linecap: butt; stroke-dashoffset: 0; stroke-linejoin: miter; stroke-miterlimit: 4; fill: rgb(69,90,100); fill-rule: nonzero; opacity: 1;"  points="-0.46,-1.33 -0.46,1.84 0.46,1.31 0.46,-1.84 -0.46,-1.33 " />
</g>
		<g transform="matrix(1 0 0 1 2.38 -71.62)"  >
<polygon style="stroke: rgb(0,0,0); stroke-width: 0.1; stroke-dasharray: none; stroke-linecap: butt; stroke-dashoffset: 0; stroke-linejoin: miter; stroke-miterlimit: 4; fill: rgb(69,90,100); fill-rule: nonzero; opacity: 1;"  points="-0.46,-1.32 -0.46,1.85 0.46,1.32 0.46,-1.85 -0.46,-1.32 " />
</g>
		<g transform="matrix(1 0 0 1 5.58 -73.47)"  >
<polygon style="stroke: rgb(0,0,0); stroke-width: 0.1; stroke-dasharray: none; stroke-linecap: butt; stroke-dashoffset: 0; stroke-linejoin: miter; stroke-miterlimit: 4; fill: rgb(69,90,100); fill-rule: nonzero; opacity: 1;"  points="-0.46,-1.31 -0.46,1.84 0.46,1.31 0.46,-1.84 -0.46,-1.31 " />
</g>
		<g transform="matrix(1 0 0 1 -2.88 -68.58)"  >
<polygon style="stroke: rgb(0,0,0); stroke-width: 0.1; stroke-dasharray: none; stroke-linecap: butt; stroke-dashoffset: 0; stroke-linejoin: miter; stroke-miterlimit: 4; fill: rgb(69,90,100); fill-rule: nonzero; opacity: 1;"  points="-0.23,-1.44 -0.23,1.72 0.23,1.46 0.23,-1.72 -0.23,-1.44 " />
</g>
		<g transform="matrix(1 0 0 1 3.52 -72.28)"  >
<polygon style="stroke: rgb(0,0,0); stroke-width: 0.1; stroke-dasharray: none; stroke-linecap: butt; stroke-dashoffset: 0; stroke-linejoin: miter; stroke-miterlimit: 4; fill: rgb(69,90,100); fill-rule: nonzero; opacity: 1;"  points="-0.23,-1.45 -0.23,1.72 0.23,1.44 0.23,-1.72 -0.23,-1.45 " />
</g>
		<g transform="matrix(1 0 0 1 0.78 -70.69)"  >
<polygon style="stroke: rgb(0,0,0); stroke-width: 0.1; stroke-dasharray: none; stroke-linecap: butt; stroke-dashoffset: 0; stroke-linejoin: miter; stroke-miterlimit: 4; fill: rgb(69,90,100); fill-rule: nonzero; opacity: 1;"  points="-0.23,-1.46 -0.23,1.72 0.23,1.45 0.23,-1.72 -0.23,-1.46 " />
</g>
		<g transform="matrix(1 0 0 1 -2.08 -69.05)"  >
<polygon style="stroke: rgb(0,0,0); stroke-width: 0.1; stroke-dasharray: none; stroke-linecap: butt; stroke-dashoffset: 0; stroke-linejoin: miter; stroke-miterlimit: 4; fill: rgb(69,90,100); fill-rule: nonzero; opacity: 1;"  points="-0.12,-1.51 -0.12,1.65 0.11,1.52 0.11,-1.64 -0.12,-1.51 " />
</g>
		<g transform="matrix(1 0 0 1 1.44 -71.07)"  >
<polygon style="stroke: rgb(0,0,0); stroke-width: 0.1; stroke-dasharray: none; stroke-linecap: butt; stroke-dashoffset: 0; stroke-linejoin: miter; stroke-miterlimit: 4; fill: rgb(69,90,100); fill-rule: nonzero; opacity: 1;"  points="-0.12,-1.52 -0.12,1.65 0.12,1.51 0.12,-1.65 -0.12,-1.52 " />
</g>
		<g transform="matrix(1 0 0 1 -0.02 -70.23)"  >
<polygon style="stroke: rgb(0,0,0); stroke-width: 0.1; stroke-dasharray: none; stroke-linecap: butt; stroke-dashoffset: 0; stroke-linejoin: miter; stroke-miterlimit: 4; fill: rgb(69,90,100); fill-rule: nonzero; opacity: 1;"  points="-0.11,-1.52 -0.11,1.65 0.11,1.51 0.11,-1.65 -0.11,-1.52 " />
</g>
		<g transform="matrix(1 0 0 1 4.55 -72.87)"  >
<polygon style="stroke: rgb(0,0,0); stroke-width: 0.1; stroke-dasharray: none; stroke-linecap: butt; stroke-dashoffset: 0; stroke-linejoin: miter; stroke-miterlimit: 4; fill: rgb(69,90,100); fill-rule: nonzero; opacity: 1;"  points="-0.11,-1.52 -0.11,1.65 0.11,1.52 0.11,-1.65 -0.11,-1.52 " />
</g>
		<g transform="matrix(1 0 0 1 -0.48 -69.97)"  >
<polygon style="stroke: rgb(0,0,0); stroke-width: 0.1; stroke-dasharray: none; stroke-linecap: butt; stroke-dashoffset: 0; stroke-linejoin: miter; stroke-miterlimit: 4; fill: rgb(69,90,100); fill-rule: nonzero; opacity: 1;"  points="-0.11,-1.52 -0.11,1.65 0.12,1.52 0.12,-1.65 -0.11,-1.52 " />
</g>
		<g transform="matrix(1 0 0 1 4.1 -72.61)"  >
<polygon style="stroke: rgb(0,0,0); stroke-width: 0.1; stroke-dasharray: none; stroke-linecap: butt; stroke-dashoffset: 0; stroke-linejoin: miter; stroke-miterlimit: 4; fill: rgb(69,90,100); fill-rule: nonzero; opacity: 1;"  points="-0.12,-1.51 -0.12,1.65 0.12,1.52 0.12,-1.65 -0.12,-1.51 " />
</g>
		<g transform="matrix(1 0 0 1 0.78 -79.63)"  >
<path style="stroke: rgb(0,0,0); stroke-width: 0.1; stroke-dasharray: none; stroke-linecap: butt; stroke-dashoffset: 0; stroke-linejoin: miter; stroke-miterlimit: 4; fill: rgb(30,139,195); fill-rule: nonzero; opacity: 0.3;"  transform=" translate(-250.78, -170.37)" d="M 247.07 172.26 l 7.42 -4.28 c 0.13 -0.07 0.23 0 0.23 0.12 a 0.51 0.51 0 0 1 -0.23 0.39 l -7.42 4.28 c -0.13 0.07 -0.23 0 -0.23 -0.12 A 0.51 0.51 0 0 1 247.07 172.26 Z" stroke-linecap="round" />
</g>
		<g transform="matrix(1 0 0 1 7.58 -76.83)"  >
<path style="stroke: rgb(0,0,0); stroke-width: 0.1; stroke-dasharray: none; stroke-linecap: butt; stroke-dashoffset: 0; stroke-linejoin: miter; stroke-miterlimit: 4; fill: rgb(255,168,167); fill-rule: nonzero; opacity: 1;"  transform=" translate(-257.58, -173.18)" d="M 267.58 174.16 h 0 c 0 -1.48 0.71 -2.5 0 -4.32 s -3.75 -5 -5.2 -7.71 s -2.49 -3.41 -3.51 -2.16 c -0.87 1.07 1.25 6.35 1.89 7.86 c -1.13 -0.6 -2.23 -0.85 -3.13 -0.28 c -2 1.28 1.1 4.21 1.1 4.21 s -2.39 0.51 -2.53 2.17 s 3 4.72 3 4.72 l -12.26 7.08 a 38.6 38.6 0 0 0 6.4 1.19 a 22.87 22.87 0 0 0 3.29 0 c 3.89 -0.37 5.42 -1.09 7.64 -3.26 a 19.88 19.88 0 0 0 3.67 -5.77 A 4.24 4.24 0 0 0 267.58 174.16 Z" stroke-linecap="round" />
</g>
		<g transform="matrix(1 0 0 1 3.73 -67.19)"  >
<path style="stroke: rgb(0,0,0); stroke-width: 0.1; stroke-dasharray: none; stroke-linecap: butt; stroke-dashoffset: 0; stroke-linejoin: miter; stroke-miterlimit: 4; fill: rgb(242,143,143); fill-rule: nonzero; opacity: 1;"  transform=" translate(-253.73, -182.81)" d="M 260.54 180 l -1.36 -1.33 l -12.26 7.08 a 38.58 38.58 0 0 0 6.41 1.19 Z" stroke-linecap="round" />
</g>
		<g transform="matrix(1 0 0 1 -4.4 -108.07)"  >
<path style="stroke: rgb(0,0,0); stroke-width: 0.1; stroke-dasharray: none; stroke-linecap: butt; stroke-dashoffset: 0; stroke-linejoin: miter; stroke-miterlimit: 4; fill: rgb(69,90,100); fill-rule: nonzero; opacity: 1;"  transform=" translate(-245.6, -141.93)" d="M 249.17 144.47 c 0.42 -0.24 0.29 -1.61 -0.4 -2 c -1.54 -0.89 -6.49 -1.46 -9.8 -1.45 l 2.83 -1.63 c 3.3 0 8.25 0.56 9.79 1.45 c 0.69 0.4 0.82 1.77 0.4 2 Z" stroke-linecap="round" />
</g>
		<g transform="matrix(1 0 0 1 -5.79 -107.25)"  >
<path style="stroke: rgb(0,0,0); stroke-width: 0.1; stroke-dasharray: none; stroke-linecap: butt; stroke-dashoffset: 0; stroke-linejoin: miter; stroke-miterlimit: 4; fill: rgb(55,71,79); fill-rule: nonzero; opacity: 1;"  transform=" translate(-244.21, -142.75)" d="M 249.17 144.47 c -0.11 0.06 -0.23 0.05 -0.41 -0.07 l 0.26 -0.15 l 0 0 a 1 1 0 0 0 0.06 -0.37 v -0.11 a 1.3 1.3 0 0 0 -0.49 -1 c -1.5 -0.86 -6.41 -1.41 -9.48 -1.41 H 239 V 141 c 3.3 0 8.25 0.57 9.78 1.45 C 249.46 142.86 249.59 144.24 249.17 144.47 Z" stroke-linecap="round" />
</g>
		<g transform="matrix(1 0 0 1 -7.83 -109.77)"  >
<path style="stroke: rgb(0,0,0); stroke-width: 0.1; stroke-dasharray: none; stroke-linecap: butt; stroke-dashoffset: 0; stroke-linejoin: miter; stroke-miterlimit: 4; fill: rgb(30,139,195); fill-rule: nonzero; opacity: 0.35;"  transform=" translate(-242.17, -140.23)" d="M 243.37 139.9 l -0.2 0.11 l -1.08 0.58 a 1.18 1.18 0 0 1 -0.56 0.12 l -0.43 0 H 241 c -0.17 0 -0.18 -0.09 0 -0.17 l 1.12 -0.65 a 1.32 1.32 0 0 1 0.55 -0.14 l 0.71 0 C 243.5 139.76 243.51 139.83 243.37 139.9 Z" stroke-linecap="round" />
</g>
		<g transform="matrix(1 0 0 1 -7.86 -109.65)"  >
<path style="stroke: rgb(0,0,0); stroke-width: 0.1; stroke-dasharray: none; stroke-linecap: butt; stroke-dashoffset: 0; stroke-linejoin: miter; stroke-miterlimit: 4; fill: rgb(30,139,195); fill-rule: nonzero; opacity: 0.35;"  transform=" translate(-242.13, -140.35)" d="M 243.17 140 l -1.08 0.58 a 1.18 1.18 0 0 1 -0.56 0.12 l -0.43 0 l 1 -0.56 a 1.18 1.18 0 0 1 0.55 -0.14 Z" stroke-linecap="round" />
</g>
		<g transform="matrix(1 0 0 1 -10.09 -109.59)"  >
<path style="stroke: rgb(0,0,0); stroke-width: 0.1; stroke-dasharray: none; stroke-linecap: butt; stroke-dashoffset: 0; stroke-linejoin: miter; stroke-miterlimit: 4; fill: rgb(149,106,254); fill-rule: nonzero; opacity: 1;"  transform=" translate(-239.91, -140.41)" d="M 241.22 140.62 l 0.12 -0.07 c 0 -0.17 -0.54 -0.28 -1.53 -0.14 a 6.17 6.17 0 0 0 -2.24 0.71 a 3.12 3.12 0 0 1 1.22 -1.07 c 0.91 -0.5 3.28 -0.43 3.43 0 c 0 0.05 0.06 0.14 0 0.2 s -0.34 0.23 -0.52 0.33 A 1.11 1.11 0 0 1 241.22 140.62 Z" stroke-linecap="round" />
</g>
		<g transform="matrix(1 0 0 1 -10.09 -109.59)"  >
<path style="stroke: rgb(0,0,0); stroke-width: 0.1; stroke-dasharray: none; stroke-linecap: butt; stroke-dashoffset: 0; stroke-linejoin: miter; stroke-miterlimit: 4; fill: rgb(30,139,195); fill-rule: nonzero; opacity: 0.3;"  transform=" translate(-239.91, -140.41)" d="M 241.22 140.62 l 0.12 -0.07 c 0 -0.17 -0.54 -0.28 -1.53 -0.14 a 6.17 6.17 0 0 0 -2.24 0.71 a 3.12 3.12 0 0 1 1.22 -1.07 c 0.91 -0.5 3.28 -0.43 3.43 0 c 0 0.05 0.06 0.14 0 0.2 s -0.34 0.23 -0.52 0.33 A 1.11 1.11 0 0 1 241.22 140.62 Z" stroke-linecap="round" />
</g>
		<g transform="matrix(1 0 0 1 -81.75 -140.38)"  >
<path style="stroke: rgb(0,0,0); stroke-width: 0.1; stroke-dasharray: none; stroke-linecap: butt; stroke-dashoffset: 0; stroke-linejoin: miter; stroke-miterlimit: 4; fill: rgb(69,90,100); fill-rule: nonzero; opacity: 1;"  transform=" translate(-168.25, -109.63)" d="M 161.86 97.9 c -1.28 0.09 -1.81 0.25 -2.85 2.34 c -1.19 2.38 -2.22 4.56 -2.22 4.56 a 14.34 14.34 0 0 0 4.34 9.23 c 4.3 4.36 13.84 7.32 13.84 7.32 s 0.79 -4.41 1.4 -6.22 c 1.33 -4 3.33 -0.82 3.33 -0.82 a 4.55 4.55 0 0 0 -1.09 -2.34 c -0.85 -0.76 -6.3 -1.23 -10.66 -4 a 16.17 16.17 0 0 1 -6 -7.55 Z" stroke-linecap="round" />
</g>
		<g transform="matrix(1 0 0 1 -66.35 -140.28)"  >
<path style="stroke: rgb(0,0,0); stroke-width: 0.1; stroke-dasharray: none; stroke-linecap: butt; stroke-dashoffset: 0; stroke-linejoin: miter; stroke-miterlimit: 4; fill: rgb(69,90,100); fill-rule: nonzero; opacity: 1;"  transform=" translate(-183.65, -109.72)" d="M 179.7 114.31 a 4.51 4.51 0 0 1 1.15 -3.49 c 1.24 -1.81 1.22 -3.47 1.24 -5.31 s 0 -6 0 -6 c 1.48 0.19 2.57 0.44 3.49 2.74 s 2.62 7 1.85 11.58 s -2.73 6.11 -2.73 6.11 s -1.14 -3.87 -1.85 -5.66 S 180.77 112.06 179.7 114.31 Z" stroke-linecap="round" />
</g>
		<g transform="matrix(1 0 0 1 92.16 -85.05)"  >
<path style="stroke: rgb(0,0,0); stroke-width: 0.1; stroke-dasharray: none; stroke-linecap: butt; stroke-dashoffset: 0; stroke-linejoin: miter; stroke-miterlimit: 4; fill: rgb(149,106,254); fill-rule: nonzero; opacity: 1;"  transform=" translate(-342.16, -164.95)" d="M 391.71 52 c 0 -0.22 -0.13 -0.45 -0.17 -0.63 a 0.39 0.39 0 0 1 -0.09 -0.22 a 3.21 3.21 0 0 0 -0.45 -0.58 a 1.44 1.44 0 0 0 -0.58 -0.48 l -0.22 -0.14 c -1.51 -0.89 -8 -4.62 -8.8 -5.07 a 3.31 3.31 0 0 0 -3.38 0.36 l -80.7 46.55 a 10.67 10.67 0 0 0 -4.8 8.36 V 276.68 a 3.31 3.31 0 0 0 1.42 3.12 c 0.85 0.48 8.14 4.71 9 5.2 c 0.09 0 0.14 0.09 0.23 0.09 a 1.66 1.66 0 0 0 0.49 0.17 a 2.11 2.11 0 0 0 1.06 0 a 4.23 4.23 0 0 0 1.65 -0.57 L 387 238.09 a 10.53 10.53 0 0 0 4.81 -8.31 V 53.18 A 4.82 4.82 0 0 0 391.71 52 Z" stroke-linecap="round" />
</g>
		<g transform="matrix(1 0 0 1 92.16 -85.05)"  >
<path style="stroke: rgb(0,0,0); stroke-width: 0.1; stroke-dasharray: none; stroke-linecap: butt; stroke-dashoffset: 0; stroke-linejoin: miter; stroke-miterlimit: 4; fill: rgb(30,139,195); fill-rule: nonzero; opacity: 0.15;"  transform=" translate(-342.16, -164.95)" d="M 391.71 52 c 0 -0.22 -0.13 -0.45 -0.17 -0.63 a 0.39 0.39 0 0 1 -0.09 -0.22 a 3.21 3.21 0 0 0 -0.45 -0.58 a 1.44 1.44 0 0 0 -0.58 -0.48 l -0.22 -0.14 c -1.51 -0.89 -8 -4.62 -8.8 -5.07 a 3.31 3.31 0 0 0 -3.38 0.36 l -80.7 46.55 a 10.67 10.67 0 0 0 -4.8 8.36 V 276.68 a 3.31 3.31 0 0 0 1.42 3.12 c 0.85 0.48 8.14 4.71 9 5.2 c 0.09 0 0.14 0.09 0.23 0.09 a 1.66 1.66 0 0 0 0.49 0.17 a 2.11 2.11 0 0 0 1.06 0 a 4.23 4.23 0 0 0 1.65 -0.57 L 387 238.09 a 10.53 10.53 0 0 0 4.81 -8.31 V 53.18 A 4.82 4.82 0 0 0 391.71 52 Z" stroke-linecap="round" />
</g>
		<g transform="matrix(1 0 0 1 47.82 -59.77)"  >
<path style="stroke: rgb(0,0,0); stroke-width: 0.1; stroke-dasharray: none; stroke-linecap: butt; stroke-dashoffset: 0; stroke-linejoin: miter; stroke-miterlimit: 4; fill: rgb(149,106,254); fill-rule: nonzero; opacity: 1;"  transform=" translate(-297.81, -190.23)" d="M 303.15 285.09 c -0.09 0 -0.14 0 -0.23 -0.09 c -0.84 -0.49 -8.13 -4.72 -9 -5.2 a 3.31 3.31 0 0 1 -1.42 -3.12 V 100.13 a 9.64 9.64 0 0 1 1.42 -4.76 l 9 5.2 a 9.64 9.64 0 0 0 -1.42 4.76 V 281.88 C 301.55 283.53 302.17 284.64 303.15 285.09 Z" stroke-linecap="round" />
</g>
		<g transform="matrix(1 0 0 1 47.82 -59.77)"  >
<path style="stroke: rgb(0,0,0); stroke-width: 0.1; stroke-dasharray: none; stroke-linecap: butt; stroke-dashoffset: 0; stroke-linejoin: miter; stroke-miterlimit: 4; fill: rgb(30,139,195); fill-rule: nonzero; opacity: 0.3;"  transform=" translate(-297.81, -190.23)" d="M 303.15 285.09 c -0.09 0 -0.14 0 -0.23 -0.09 c -0.84 -0.49 -8.13 -4.72 -9 -5.2 a 3.31 3.31 0 0 1 -1.42 -3.12 V 100.13 a 9.64 9.64 0 0 1 1.42 -4.76 l 9 5.2 a 9.64 9.64 0 0 0 -1.42 4.76 V 281.88 C 301.55 283.53 302.17 284.64 303.15 285.09 Z" stroke-linecap="round" />
</g>
		<g transform="matrix(1 0 0 1 96.68 -82.45)"  >
<path style="stroke: rgb(0,0,0); stroke-width: 0.1; stroke-dasharray: none; stroke-linecap: butt; stroke-dashoffset: 0; stroke-linejoin: miter; stroke-miterlimit: 4; fill: rgb(149,106,254); fill-rule: nonzero; opacity: 1;"  transform=" translate(-346.68, -167.55)" d="M 391.71 52 c 0 -0.22 -0.13 -0.45 -0.17 -0.63 a 0.39 0.39 0 0 1 -0.09 -0.22 a 3.21 3.21 0 0 0 -0.45 -0.58 a 1.44 1.44 0 0 0 -0.58 -0.48 l -0.22 -0.14 a 3.58 3.58 0 0 0 -3.16 0.49 L 349.52 72.07 L 329.07 83.9 L 306.35 97 a 10.78 10.78 0 0 0 -4.8 8.36 V 281.88 c 0 1.65 0.62 2.76 1.6 3.21 a 1.66 1.66 0 0 0 0.49 0.17 a 2.11 2.11 0 0 0 1.06 0 a 4.23 4.23 0 0 0 1.65 -0.57 L 387 238.09 a 10.53 10.53 0 0 0 4.81 -8.31 V 53.18 A 4.82 4.82 0 0 0 391.71 52 Z" stroke-linecap="round" />
</g>
		<g transform="matrix(1 0 0 1 96.69 -118.71)"  >
<path style="stroke: rgb(0,0,0); stroke-width: 0.1; stroke-dasharray: none; stroke-linecap: butt; stroke-dashoffset: 0; stroke-linejoin: miter; stroke-miterlimit: 4; fill: rgb(250,250,250); fill-rule: nonzero; opacity: 1;"  transform=" translate(-346.69, -131.29)" d="M 316.07 107.71 l 61.25 -35.36 c 1.1 -0.63 2 -0.12 2 1.15 v 78 a 4.37 4.37 0 0 1 -2 3.43 l -61.25 35.3 c -1.1 0.64 -2 0.12 -2 -1.14 v -77.9 A 4.41 4.41 0 0 1 316.07 107.71 Z" stroke-linecap="round" />
</g>
		<g transform="matrix(1 0 0 1 115.04 -101.43)"  >
<path style="stroke: rgb(0,0,0); stroke-width: 0.1; stroke-dasharray: none; stroke-linecap: butt; stroke-dashoffset: 0; stroke-linejoin: miter; stroke-miterlimit: 4; fill: rgb(69,90,100); fill-rule: nonzero; opacity: 1;"  transform=" translate(-365.05, -148.56)" d="M 376 155.64 l -9.63 5.55 l -1.15 0.67 c -3.84 -5.33 -7.22 -10.25 -7.22 -10.25 a 86.76 86.76 0 0 1 -2.64 -8.85 h 0 a 52.7 52.7 0 0 1 -1.27 -6.93 h 0 a 12.84 12.84 0 0 1 7.51 0 c 2.06 0.77 4.22 2.88 5.73 5.42 S 373 150.66 376 155.64 Z" stroke-linecap="round" />
</g>
		<g transform="matrix(1 0 0 1 97.78 -90.79)"  >
<path style="stroke: rgb(0,0,0); stroke-width: 0.1; stroke-dasharray: none; stroke-linecap: butt; stroke-dashoffset: 0; stroke-linejoin: miter; stroke-miterlimit: 4; fill: rgb(55,71,79); fill-rule: nonzero; opacity: 1;"  transform=" translate(-347.77, -159.21)" d="M 366.41 161.19 l -1.15 0.67 l -11.13 6.41 l -1.7 1 L 330.15 182.1 l -0.91 0.52 l -0.1 -3.84 L 330.26 161 c 0 -3.43 1.78 -17.08 1.78 -17.08 l 5 -2 l 3.05 -1.22 l 1 -0.39 l 0.4 -0.16 l 8.44 -3.38 c 0.55 -0.19 1.08 -0.35 1.6 -0.49 h 0 c 0.17 -0.06 0.36 -0.09 0.52 -0.13 a 11.51 11.51 0 0 1 2 -0.32 h 0 c 6.27 -0.49 9.61 4.22 11.16 11.74 A 124.44 124.44 0 0 1 366.41 161.19 Z" stroke-linecap="round" />
</g>
		<g transform="matrix(1 0 0 1 102.46 -92.5)"  >
<path style="stroke: rgb(0,0,0); stroke-width: 0.1; stroke-dasharray: none; stroke-linecap: butt; stroke-dashoffset: 0; stroke-linejoin: miter; stroke-miterlimit: 4; fill: rgb(38,50,56); fill-rule: nonzero; opacity: 1;"  transform=" translate(-352.46, -157.5)" d="M 354.13 168.27 l -1.7 1 c 0.56 -8.07 0.21 -18.23 -1.72 -23.55 C 354.29 154.48 354.38 163.6 354.13 168.27 Z" stroke-linecap="round" />
</g>
		<g transform="matrix(1 0 0 1 75.85 -83.09)"  >
<path style="stroke: rgb(0,0,0); stroke-width: 0.1; stroke-dasharray: none; stroke-linecap: butt; stroke-dashoffset: 0; stroke-linejoin: miter; stroke-miterlimit: 4; fill: rgb(69,90,100); fill-rule: nonzero; opacity: 1;"  transform=" translate(-325.85, -166.91)" d="M 334.05 165.66 s -2.1 8.17 -3.9 16.44 l -0.91 0.52 l -12.61 7.27 c 2.27 -22.6 3.77 -34.66 7.34 -40.7 c 1.94 -3.31 4.92 -4.14 8.07 -5.27 C 334.89 146.05 336.07 156.21 334.05 165.66 Z" stroke-linecap="round" />
</g>
		<g transform="matrix(1 0 0 1 88.09 -131.13)"  >
<path style="stroke: rgb(0,0,0); stroke-width: 0.1; stroke-dasharray: none; stroke-linecap: butt; stroke-dashoffset: 0; stroke-linejoin: miter; stroke-miterlimit: 4; fill: rgb(38,50,56); fill-rule: nonzero; opacity: 1;"  transform=" translate(-338.1, -118.87)" d="M 338 104.56 a 7 7 0 0 0 -3.94 3.67 c -0.92 2.34 -0.59 7.54 0.64 13.06 a 51.21 51.21 0 0 0 3.09 10.23 a 3 3 0 0 0 2.2 1.65 l -0.14 -6.78 l -0.21 -4.7 s 2.63 -4.63 2.92 -8.08 c 0.38 -4.46 -0.42 -6.11 -0.42 -6.11 Z" stroke-linecap="round" />
</g>
		<g transform="matrix(1 0 0 1 85.42 -146.25)"  >
<path style="stroke: rgb(0,0,0); stroke-width: 0.1; stroke-dasharray: none; stroke-linecap: butt; stroke-dashoffset: 0; stroke-linejoin: miter; stroke-miterlimit: 4; fill: rgb(38,50,56); fill-rule: nonzero; opacity: 1;"  transform=" translate(-335.42, -103.75)" d="M 337.32 105.51 l -4.06 -1.42 c 0.58 -1.5 1.95 -2.4 3.07 -2 S 337.9 104 337.32 105.51 Z" stroke-linecap="round" />
</g>
		<g transform="matrix(1 0 0 1 103.65 -141.65)"  >
<path style="stroke: rgb(0,0,0); stroke-width: 0.1; stroke-dasharray: none; stroke-linecap: butt; stroke-dashoffset: 0; stroke-linejoin: miter; stroke-miterlimit: 4; fill: rgb(38,50,56); fill-rule: nonzero; opacity: 1;"  transform=" translate(-353.65, -108.34)" d="M 342.65 110.33 c 0 7 5 11.81 11 10.72 s 11 -7.67 11 -14.69 s -5 -11.81 -11 -10.72 S 342.63 103.31 342.65 110.33 Z" stroke-linecap="round" />
</g>
		<g transform="matrix(1 0 0 1 97.58 -127.16)"  >
<path style="stroke: rgb(0,0,0); stroke-width: 0.1; stroke-dasharray: none; stroke-linecap: butt; stroke-dashoffset: 0; stroke-linejoin: miter; stroke-miterlimit: 4; fill: rgb(255,168,167); fill-rule: nonzero; opacity: 1;"  transform=" translate(-347.58, -122.85)" d="M 339.79 120.9 c -1 1.17 -1.79 -1.26 -2.63 -2.11 s -3.55 -1.74 -4.89 1.8 s 1.24 7.7 3.27 8.43 c 3 1.07 4.31 -2.63 4.31 -2.63 l 0.32 15.3 c 2.88 4.54 9.38 0.05 10.53 3.21 c 0.19 -2.51 3.57 -3.36 1.44 -5.8 l 0 -4.66 a 20.52 20.52 0 0 0 5 -0.6 c 2.71 -1 4.12 -3.58 4.93 -7.11 c 1.3 -5.66 1.83 -14.89 0 -25.13 c -3 -2.17 -13.54 0.13 -19.89 5.9 C 342.6 116.78 340.78 119.73 339.79 120.9 Z" stroke-linecap="round" />
</g>
		<g transform="matrix(1 0 0 1 100.57 -151.26)"  >
<path style="stroke: rgb(0,0,0); stroke-width: 0.1; stroke-dasharray: none; stroke-linecap: butt; stroke-dashoffset: 0; stroke-linejoin: miter; stroke-miterlimit: 4; fill: rgb(38,50,56); fill-rule: nonzero; opacity: 1;"  transform=" translate(-350.57, -98.74)" d="M 363.54 93.86 a 0.42 0.42 0 0 0 -0.39 -0.29 a 0.77 0.77 0 0 0 -0.38 0.26 a 22.56 22.56 0 0 1 -2.4 2.29 a 11.83 11.83 0 0 0 0 -3.8 c -0.12 -0.75 -0.31 -2.5 -1.14 -2.54 c -0.49 0 -0.92 0.52 -1.28 1 c -3.31 4.16 -7.63 3.26 -11.61 4.11 c -3.33 0.71 -7.36 3 -8.86 7 c -0.69 1.83 -0.81 3.65 0.55 4.6 a 7.42 7.42 0 0 0 4.07 1 c 6.63 0.16 16.15 1.64 21.06 -6.37 a 7.13 7.13 0 0 0 1 -3.93 a 7.74 7.74 0 0 0 -0.66 -3.3 Z" stroke-linecap="round" />
</g>
		<g transform="matrix(1 0 0 1 96.58 -116.67)"  >
<path style="stroke: rgb(0,0,0); stroke-width: 0.1; stroke-dasharray: none; stroke-linecap: butt; stroke-dashoffset: 0; stroke-linejoin: miter; stroke-miterlimit: 4; fill: rgb(242,143,143); fill-rule: nonzero; opacity: 1;"  transform=" translate(-346.58, -133.33)" d="M 352.12 134.44 s -6 -0.32 -8.16 -1.24 a 5.93 5.93 0 0 1 -2.93 -2.8 A 9.85 9.85 0 0 0 342.7 134 c 1.55 2 9.43 2.26 9.43 2.26 Z" stroke-linecap="round" />
</g>
		<g transform="matrix(1 0 0 1 99.34 -132.46)"  >
<path style="stroke: rgb(0,0,0); stroke-width: 0.1; stroke-dasharray: none; stroke-linecap: butt; stroke-dashoffset: 0; stroke-linejoin: miter; stroke-miterlimit: 4; fill: rgb(38,50,56); fill-rule: nonzero; opacity: 1;"  transform=" translate(-349.34, -117.54)" d="M 350.55 117.32 a 1.66 1.66 0 0 1 -1.2 1.67 c -0.67 0.12 -1.21 -0.44 -1.22 -1.24 a 1.66 1.66 0 0 1 1.21 -1.66 C 350 116 350.55 116.52 350.55 117.32 Z" stroke-linecap="round" />
</g>
		<g transform="matrix(1 0 0 1 97.88 -137.03)"  >
<path style="stroke: rgb(0,0,0); stroke-width: 0.1; stroke-dasharray: none; stroke-linecap: butt; stroke-dashoffset: 0; stroke-linejoin: miter; stroke-miterlimit: 4; fill: rgb(38,50,56); fill-rule: nonzero; opacity: 1;"  transform=" translate(-347.88, -112.98)" d="M 349.26 112.28 l -2.59 2.12 a 2.16 2.16 0 0 1 0.6 -2.49 A 1.23 1.23 0 0 1 349.26 112.28 Z" stroke-linecap="round" />
</g>
		<g transform="matrix(1 0 0 1 102.84 -122.62)"  >
<path style="stroke: rgb(0,0,0); stroke-width: 0.1; stroke-dasharray: none; stroke-linecap: butt; stroke-dashoffset: 0; stroke-linejoin: miter; stroke-miterlimit: 4; fill: rgb(242,143,143); fill-rule: nonzero; opacity: 1;"  transform=" translate(-352.85, -127.38)" d="M 351.22 126.09 l 3.39 0.86 a 2.1 2.1 0 0 1 -2.29 1.71 A 2 2 0 0 1 351.22 126.09 Z" stroke-linecap="round" />
</g>
		<g transform="matrix(1 0 0 1 109.79 -139.92)"  >
<path style="stroke: rgb(0,0,0); stroke-width: 0.1; stroke-dasharray: none; stroke-linecap: butt; stroke-dashoffset: 0; stroke-linejoin: miter; stroke-miterlimit: 4; fill: rgb(38,50,56); fill-rule: nonzero; opacity: 1;"  transform=" translate(-359.79, -110.07)" d="M 360.84 111.36 l -2.37 -1.68 a 1.44 1.44 0 0 1 2 -0.73 A 1.89 1.89 0 0 1 360.84 111.36 Z" stroke-linecap="round" />
</g>
		<g transform="matrix(1 0 0 1 108.91 -134.59)"  >
<path style="stroke: rgb(0,0,0); stroke-width: 0.1; stroke-dasharray: none; stroke-linecap: butt; stroke-dashoffset: 0; stroke-linejoin: miter; stroke-miterlimit: 4; fill: rgb(38,50,56); fill-rule: nonzero; opacity: 1;"  transform=" translate(-358.91, -115.41)" d="M 360.12 115.2 a 1.68 1.68 0 0 1 -1.21 1.67 c -0.66 0.11 -1.21 -0.44 -1.21 -1.24 a 1.68 1.68 0 0 1 1.21 -1.67 C 359.57 113.84 360.12 114.4 360.12 115.2 Z" stroke-linecap="round" />
</g>
		<g transform="matrix(1 0 0 1 106.56 -130.94)"  >
<polygon style="stroke: rgb(0,0,0); stroke-width: 0.1; stroke-dasharray: none; stroke-linecap: butt; stroke-dashoffset: 0; stroke-linejoin: miter; stroke-miterlimit: 4; fill: rgb(242,143,143); fill-rule: nonzero; opacity: 1;"  points="-2.11,-4.16 -1.69,4.17 2.11,1.98 -2.11,-4.16 " />
</g>
		<g transform="matrix(1 0 0 1 93.83 -106.95)"  >
<path style="stroke: rgb(0,0,0); stroke-width: 0.1; stroke-dasharray: none; stroke-linecap: butt; stroke-dashoffset: 0; stroke-linejoin: miter; stroke-miterlimit: 4; fill: rgb(69,90,100); fill-rule: nonzero; opacity: 1;"  transform=" translate(-343.83, -143.05)" d="M 340 135.74 c -0.79 0.06 -1.07 0.41 -1.69 2 c -0.71 1.79 -1.33 3.42 -1.33 3.42 a 8.83 8.83 0 0 0 2.6 5.83 c 2.56 2.49 8.25 3.36 8.25 3.36 s 0.48 -3.13 0.84 -4.46 c 0.8 -2.89 2 -1 2 -1 a 2.79 2.79 0 0 0 -0.65 -1.49 c -0.51 -0.42 -3.76 -0.08 -6.36 -1.44 a 8.49 8.49 0 0 1 -3.61 -4.46 Z" stroke-linecap="round" />
</g>
		<g transform="matrix(1 0 0 1 103.04 -108.68)"  >
<path style="stroke: rgb(0,0,0); stroke-width: 0.1; stroke-dasharray: none; stroke-linecap: butt; stroke-dashoffset: 0; stroke-linejoin: miter; stroke-miterlimit: 4; fill: rgb(69,90,100); fill-rule: nonzero; opacity: 1;"  transform=" translate(-353.04, -141.32)" d="M 350.7 144.9 a 4 4 0 0 1 0.69 -2.55 a 7.46 7.46 0 0 0 0.73 -3.81 c 0 -1.27 0 -4.1 0 -4.1 c 0.88 -0.05 1.53 0 2.08 1.47 a 16.07 16.07 0 0 1 1.11 7.76 a 9 9 0 0 1 -1.63 4.54 s -0.68 -2.53 -1.1 -3.68 S 351.34 143.22 350.7 144.9 Z" stroke-linecap="round" />
</g>
		<g transform="matrix(1 0 0 1 36.02 -109.17)"  >
<path style="stroke: rgb(0,0,0); stroke-width: 0.1; stroke-dasharray: none; stroke-linecap: butt; stroke-dashoffset: 0; stroke-linejoin: miter; stroke-miterlimit: 4; fill: rgb(149,106,254); fill-rule: nonzero; opacity: 1;"  transform=" translate(-286.02, -140.83)" d="M 301.55 130.73 l -9 -5.22 L 270.9 148.42 a 1.5 1.5 0 0 0 0.32 2.32 c 0.25 0.15 8.27 4.76 9 5.22 a 1.5 1.5 0 0 0 0.91 0.19 l 20.4 -2 Z" stroke-linecap="round" />
</g>
		<g transform="matrix(1 0 0 1 36.02 -109.17)"  >
<path style="stroke: rgb(0,0,0); stroke-width: 0.1; stroke-dasharray: none; stroke-linecap: butt; stroke-dashoffset: 0; stroke-linejoin: miter; stroke-miterlimit: 4; fill: rgb(30,139,195); fill-rule: nonzero; opacity: 0.15;"  transform=" translate(-286.02, -140.83)" d="M 301.55 130.73 l -9 -5.22 L 270.9 148.42 a 1.5 1.5 0 0 0 0.32 2.32 c 0.25 0.15 8.27 4.76 9 5.22 a 1.5 1.5 0 0 0 0.91 0.19 l 20.4 -2 Z" stroke-linecap="round" />
</g>
		<g transform="matrix(1 0 0 1 40.54 -106.56)"  >
<path style="stroke: rgb(0,0,0); stroke-width: 0.1; stroke-dasharray: none; stroke-linecap: butt; stroke-dashoffset: 0; stroke-linejoin: miter; stroke-miterlimit: 4; fill: rgb(149,106,254); fill-rule: nonzero; opacity: 1;"  transform=" translate(-290.53, -143.44)" d="M 301.55 130.73 l -21.63 22.91 a 1.49 1.49 0 0 0 1.24 2.51 l 20.4 -2 Z" stroke-linecap="round" />
</g>
		<g transform="matrix(1 0 0 1 96.69 -65.19)"  >
<path style="stroke: rgb(0,0,0); stroke-width: 0.1; stroke-dasharray: none; stroke-linecap: butt; stroke-dashoffset: 0; stroke-linejoin: miter; stroke-miterlimit: 4; fill: rgb(69,90,100); fill-rule: nonzero; opacity: 1;"  transform=" translate(-346.69, -184.81)" d="M 326.51 192.87 l 40.37 -23.31 c 1.47 -0.84 2.65 -0.16 2.65 1.54 v 1.05 a 5.86 5.86 0 0 1 -2.65 4.6 l -40.37 23.31 c -1.46 0.84 -2.65 0.16 -2.65 -1.54 v -1.05 A 5.86 5.86 0 0 1 326.51 192.87 Z" stroke-linecap="round" />
</g>
		<g transform="matrix(1 0 0 1 73.86 -31.84)"  >
<path style="stroke: rgb(0,0,0); stroke-width: 0.1; stroke-dasharray: none; stroke-linecap: butt; stroke-dashoffset: 0; stroke-linejoin: miter; stroke-miterlimit: 4; fill: rgb(69,90,100); fill-rule: nonzero; opacity: 1;"  transform=" translate(-323.86, -218.16)" d="M 316.66 221.13 l 14.4 -8.34 c 0.61 -0.35 1.1 -0.1 1.1 0.56 a 2.37 2.37 0 0 1 -1.1 1.84 l -14.4 8.34 c -0.61 0.35 -1.11 0.1 -1.11 -0.56 A 2.38 2.38 0 0 1 316.66 221.13 Z" stroke-linecap="round" />
</g>
		<g transform="matrix(1 0 0 1 109.16 -52.2)"  >
<path style="stroke: rgb(0,0,0); stroke-width: 0.1; stroke-dasharray: none; stroke-linecap: butt; stroke-dashoffset: 0; stroke-linejoin: miter; stroke-miterlimit: 4; fill: rgb(69,90,100); fill-rule: nonzero; opacity: 1;"  transform=" translate(-359.16, -197.8)" d="M 341.57 206.75 l 35.16 -20.3 c 0.61 -0.35 1.11 -0.1 1.11 0.56 a 2.4 2.4 0 0 1 -1.11 1.84 l -35.16 20.29 c -0.61 0.36 -1.1 0.11 -1.1 -0.56 A 2.35 2.35 0 0 1 341.57 206.75 Z" stroke-linecap="round" />
</g>
		<g transform="matrix(1 0 0 1 73.86 -27.04)"  >
<path style="stroke: rgb(0,0,0); stroke-width: 0.1; stroke-dasharray: none; stroke-linecap: butt; stroke-dashoffset: 0; stroke-linejoin: miter; stroke-miterlimit: 4; fill: rgb(69,90,100); fill-rule: nonzero; opacity: 1;"  transform=" translate(-323.86, -222.95)" d="M 316.66 225.92 l 14.4 -8.33 c 0.61 -0.36 1.1 -0.11 1.1 0.56 a 2.39 2.39 0 0 1 -1.1 1.84 l -14.4 8.33 c -0.61 0.36 -1.11 0.11 -1.11 -0.56 A 2.4 2.4 0 0 1 316.66 225.92 Z" stroke-linecap="round" />
</g>
		<g transform="matrix(1 0 0 1 109.16 -47.41)"  >
<path style="stroke: rgb(0,0,0); stroke-width: 0.1; stroke-dasharray: none; stroke-linecap: butt; stroke-dashoffset: 0; stroke-linejoin: miter; stroke-miterlimit: 4; fill: rgb(69,90,100); fill-rule: nonzero; opacity: 1;"  transform=" translate(-359.16, -202.59)" d="M 341.57 211.54 l 35.16 -20.3 c 0.61 -0.35 1.11 -0.1 1.11 0.56 a 2.37 2.37 0 0 1 -1.11 1.84 l -35.16 20.3 c -0.61 0.35 -1.1 0.1 -1.1 -0.56 A 2.37 2.37 0 0 1 341.57 211.54 Z" stroke-linecap="round" />
</g>
		<g transform="matrix(1 0 0 1 73.86 -22.25)"  >
<path style="stroke: rgb(0,0,0); stroke-width: 0.1; stroke-dasharray: none; stroke-linecap: butt; stroke-dashoffset: 0; stroke-linejoin: miter; stroke-miterlimit: 4; fill: rgb(69,90,100); fill-rule: nonzero; opacity: 1;"  transform=" translate(-323.86, -227.75)" d="M 316.66 230.72 l 14.4 -8.34 c 0.61 -0.35 1.1 -0.1 1.1 0.56 a 2.37 2.37 0 0 1 -1.1 1.84 l -14.4 8.34 c -0.61 0.35 -1.11 0.1 -1.11 -0.56 A 2.38 2.38 0 0 1 316.66 230.72 Z" stroke-linecap="round" />
</g>
		<g transform="matrix(1 0 0 1 109.16 -42.65)"  >
<path style="stroke: rgb(0,0,0); stroke-width: 0.1; stroke-dasharray: none; stroke-linecap: butt; stroke-dashoffset: 0; stroke-linejoin: miter; stroke-miterlimit: 4; fill: rgb(69,90,100); fill-rule: nonzero; opacity: 1;"  transform=" translate(-359.16, -207.35)" d="M 341.57 216.34 L 376.73 196 c 0.61 -0.35 1.11 -0.1 1.11 0.56 a 2.4 2.4 0 0 1 -1.11 1.84 l -35.16 20.29 c -0.61 0.36 -1.1 0.11 -1.1 -0.56 A 2.35 2.35 0 0 1 341.57 216.34 Z" stroke-linecap="round" />
</g>
		<g transform="matrix(1 0 0 1 73.86 -17.45)"  >
<path style="stroke: rgb(0,0,0); stroke-width: 0.1; stroke-dasharray: none; stroke-linecap: butt; stroke-dashoffset: 0; stroke-linejoin: miter; stroke-miterlimit: 4; fill: rgb(69,90,100); fill-rule: nonzero; opacity: 1;"  transform=" translate(-323.86, -232.55)" d="M 316.66 235.52 l 14.4 -8.34 c 0.61 -0.35 1.1 -0.1 1.1 0.56 a 2.39 2.39 0 0 1 -1.1 1.84 l -14.4 8.33 c -0.61 0.36 -1.11 0.11 -1.11 -0.56 A 2.37 2.37 0 0 1 316.66 235.52 Z" stroke-linecap="round" />
</g>
		<g transform="matrix(1 0 0 1 109.16 -37.82)"  >
<path style="stroke: rgb(0,0,0); stroke-width: 0.1; stroke-dasharray: none; stroke-linecap: butt; stroke-dashoffset: 0; stroke-linejoin: miter; stroke-miterlimit: 4; fill: rgb(69,90,100); fill-rule: nonzero; opacity: 1;"  transform=" translate(-359.16, -212.18)" d="M 341.57 221.13 l 35.16 -20.3 c 0.61 -0.35 1.11 -0.1 1.11 0.56 a 2.37 2.37 0 0 1 -1.11 1.84 l -35.16 20.3 c -0.61 0.35 -1.1 0.1 -1.1 -0.56 A 2.37 2.37 0 0 1 341.57 221.13 Z" stroke-linecap="round" />
</g>
		<g transform="matrix(1 0 0 1 73.95 0.3)"  >
<polygon style="stroke: rgb(0,0,0); stroke-width: 0.1; stroke-dasharray: none; stroke-linecap: butt; stroke-dashoffset: 0; stroke-linejoin: miter; stroke-miterlimit: 4; fill: rgb(69,90,100); fill-rule: nonzero; opacity: 1;"  points="-2.17,-6.25 -2.17,8.75 2.17,6.25 2.17,-8.75 -2.17,-6.25 " />
</g>
		<g transform="matrix(1 0 0 1 86.95 -7.2)"  >
<polygon style="stroke: rgb(0,0,0); stroke-width: 0.1; stroke-dasharray: none; stroke-linecap: butt; stroke-dashoffset: 0; stroke-linejoin: miter; stroke-miterlimit: 4; fill: rgb(69,90,100); fill-rule: nonzero; opacity: 1;"  points="-2.17,-6.26 -2.17,8.76 2.17,6.25 2.17,-8.76 -2.17,-6.26 " />
</g>
		<g transform="matrix(1 0 0 1 104.28 -17.21)"  >
<polygon style="stroke: rgb(0,0,0); stroke-width: 0.1; stroke-dasharray: none; stroke-linecap: butt; stroke-dashoffset: 0; stroke-linejoin: miter; stroke-miterlimit: 4; fill: rgb(69,90,100); fill-rule: nonzero; opacity: 1;"  points="-2.16,-6.26 -2.16,8.76 2.17,6.25 2.17,-8.76 -2.16,-6.26 " />
</g>
		<g transform="matrix(1 0 0 1 119.45 -25.97)"  >
<polygon style="stroke: rgb(0,0,0); stroke-width: 0.1; stroke-dasharray: none; stroke-linecap: butt; stroke-dashoffset: 0; stroke-linejoin: miter; stroke-miterlimit: 4; fill: rgb(69,90,100); fill-rule: nonzero; opacity: 1;"  points="-2.17,-6.25 -2.17,8.75 2.17,6.25 2.17,-8.75 -2.17,-6.25 " />
</g>
		<g transform="matrix(1 0 0 1 79.37 -2.82)"  >
<polygon style="stroke: rgb(0,0,0); stroke-width: 0.1; stroke-dasharray: none; stroke-linecap: butt; stroke-dashoffset: 0; stroke-linejoin: miter; stroke-miterlimit: 4; fill: rgb(69,90,100); fill-rule: nonzero; opacity: 1;"  points="-1.09,-6.88 -1.09,8.13 1.08,6.88 1.08,-8.13 -1.09,-6.88 " />
</g>
		<g transform="matrix(1 0 0 1 109.69 -20.34)"  >
<polygon style="stroke: rgb(0,0,0); stroke-width: 0.1; stroke-dasharray: none; stroke-linecap: butt; stroke-dashoffset: 0; stroke-linejoin: miter; stroke-miterlimit: 4; fill: rgb(69,90,100); fill-rule: nonzero; opacity: 1;"  points="-1.08,-6.88 -1.08,8.13 1.08,6.88 1.08,-8.13 -1.08,-6.88 " />
</g>
		<g transform="matrix(1 0 0 1 96.69 -12.83)"  >
<polygon style="stroke: rgb(0,0,0); stroke-width: 0.1; stroke-dasharray: none; stroke-linecap: butt; stroke-dashoffset: 0; stroke-linejoin: miter; stroke-miterlimit: 4; fill: rgb(69,90,100); fill-rule: nonzero; opacity: 1;"  points="-1.08,-6.88 -1.08,8.13 1.08,6.88 1.08,-8.13 -1.08,-6.88 " />
</g>
		<g transform="matrix(1 0 0 1 83.15 -5.01)"  >
<polygon style="stroke: rgb(0,0,0); stroke-width: 0.1; stroke-dasharray: none; stroke-linecap: butt; stroke-dashoffset: 0; stroke-linejoin: miter; stroke-miterlimit: 4; fill: rgb(69,90,100); fill-rule: nonzero; opacity: 1;"  points="-0.54,-7.19 -0.54,7.82 0.54,7.19 0.54,-7.82 -0.54,-7.19 " />
</g>
		<g transform="matrix(1 0 0 1 99.8 -14.62)"  >
<polygon style="stroke: rgb(0,0,0); stroke-width: 0.1; stroke-dasharray: none; stroke-linecap: butt; stroke-dashoffset: 0; stroke-linejoin: miter; stroke-miterlimit: 4; fill: rgb(69,90,100); fill-rule: nonzero; opacity: 1;"  points="-0.54,-7.19 -0.54,7.82 0.54,7.19 0.54,-7.82 -0.54,-7.19 " />
</g>
		<g transform="matrix(1 0 0 1 92.9 -10.64)"  >
<polygon style="stroke: rgb(0,0,0); stroke-width: 0.1; stroke-dasharray: none; stroke-linecap: butt; stroke-dashoffset: 0; stroke-linejoin: miter; stroke-miterlimit: 4; fill: rgb(69,90,100); fill-rule: nonzero; opacity: 1;"  points="-0.54,-7.19 -0.54,7.82 0.55,7.19 0.55,-7.82 -0.54,-7.19 " />
</g>
		<g transform="matrix(1 0 0 1 114.57 -23.15)"  >
<polygon style="stroke: rgb(0,0,0); stroke-width: 0.1; stroke-dasharray: none; stroke-linecap: butt; stroke-dashoffset: 0; stroke-linejoin: miter; stroke-miterlimit: 4; fill: rgb(69,90,100); fill-rule: nonzero; opacity: 1;"  points="-0.54,-7.19 -0.54,7.82 0.54,7.19 0.54,-7.82 -0.54,-7.19 " />
</g>
		<g transform="matrix(1 0 0 1 90.74 -9.41)"  >
<polygon style="stroke: rgb(0,0,0); stroke-width: 0.1; stroke-dasharray: none; stroke-linecap: butt; stroke-dashoffset: 0; stroke-linejoin: miter; stroke-miterlimit: 4; fill: rgb(69,90,100); fill-rule: nonzero; opacity: 1;"  points="-0.54,-7.19 -0.54,7.81 0.54,7.19 0.54,-7.81 -0.54,-7.19 " />
</g>
		<g transform="matrix(1 0 0 1 112.4 -21.89)"  >
<polygon style="stroke: rgb(0,0,0); stroke-width: 0.1; stroke-dasharray: none; stroke-linecap: butt; stroke-dashoffset: 0; stroke-linejoin: miter; stroke-miterlimit: 4; fill: rgb(69,90,100); fill-rule: nonzero; opacity: 1;"  points="-0.54,-7.2 -0.54,7.82 0.55,7.19 0.55,-7.82 -0.54,-7.2 " />
</g>
		<g transform="matrix(1 0 0 1 96.69 -56.16)"  >
<path style="stroke: rgb(0,0,0); stroke-width: 0.1; stroke-dasharray: none; stroke-linecap: butt; stroke-dashoffset: 0; stroke-linejoin: miter; stroke-miterlimit: 4; fill: rgb(30,139,195); fill-rule: nonzero; opacity: 0.3;"  transform=" translate(-346.69, -193.84)" d="M 329.12 202.79 l 35.16 -20.3 c 0.61 -0.35 1.1 -0.1 1.1 0.56 a 2.37 2.37 0 0 1 -1.1 1.84 l -35.16 20.3 c -0.61 0.35 -1.11 0.1 -1.11 -0.56 A 2.37 2.37 0 0 1 329.12 202.79 Z" stroke-linecap="round" />
</g>
</g>
</g>
</svg>